<svg width="41" height="49" viewBox="0 0 41 49" fill="none" xmlns="http://www.w3.org/2000/svg">
<path d="M20.4983 49L11.0298 33.6875H29.9669L20.4983 49Z" fill="#0D53DB"/>
<ellipse cx="20.5" cy="20.4166" rx="20.5" ry="20.4166" fill="#0D53DB"/>
<ellipse cx="20.4991" cy="20.4167" rx="17.7667" ry="17.6944" fill="white"/>
<path d="M18.2331 26.203V23.942C18.233 23.3669 18.74 22.8996 19.3681 22.8957H21.669C22.3001 22.8957 22.8117 23.3641 22.8117 23.942V23.942V26.21C22.8116 26.6982 23.2373 27.0973 23.7704 27.1088H25.3043C26.8334 27.1088 28.073 25.9739 28.073 24.5739V24.5739V18.142C28.0648 17.5912 27.7824 17.0741 27.3061 16.7376L22.0601 12.8687C21.1411 12.195 19.8347 12.195 18.9156 12.8687L13.6927 16.7447C13.2146 17.0797 12.9317 17.5978 12.9258 18.149V24.5739C12.9258 25.9739 14.1654 27.1088 15.6945 27.1088H17.2284C17.7748 27.1088 18.2177 26.7032 18.2177 26.203V26.203" stroke="#848EAA" stroke-linecap="round" stroke-linejoin="round"/>
</svg>
