<svg width="65" height="73" viewBox="0 0 65 73" fill="none" xmlns="http://www.w3.org/2000/svg">
<g filter="url(#filter0_d_1228_2181)">
<g filter="url(#filter1_d_1228_2181)">
<path d="M32.5003 60.9999L23.0317 45.6874H41.9688L32.5003 60.9999Z" fill="white"/>
</g>
<ellipse cx="32.5" cy="32.4166" rx="20.5" ry="20.4166" fill="white"/>
<ellipse cx="32.4991" cy="32.4164" rx="17.7667" ry="17.6944" fill="#848EAA"/>
</g>
<path d="M33.1411 29.1325V35.0736" stroke="white" stroke-width="0.7" stroke-linecap="round" stroke-linejoin="round"/>
<path d="M36.0775 32.1031H30.2051" stroke="white" stroke-width="0.7" stroke-linecap="round" stroke-linejoin="round"/>
<path fill-rule="evenodd" clip-rule="evenodd" d="M36.8929 24.0016H29.3884C26.7725 24.0016 25.1328 25.8765 25.1328 28.5306V35.6908C25.1328 38.345 26.7649 40.2199 29.3884 40.2199H36.8929C39.5164 40.2199 41.1484 38.345 41.1484 35.6908V28.5306C41.1484 25.8765 39.5164 24.0016 36.8929 24.0016Z" stroke="white" stroke-width="0.7" stroke-linecap="round" stroke-linejoin="round"/>
<defs>
<filter id="filter0_d_1228_2181" x="0" y="0" width="65" height="72.9999" filterUnits="userSpaceOnUse" color-interpolation-filters="sRGB">
<feFlood flood-opacity="0" result="BackgroundImageFix"/>
<feColorMatrix in="SourceAlpha" type="matrix" values="0 0 0 0 0 0 0 0 0 0 0 0 0 0 0 0 0 0 127 0" result="hardAlpha"/>
<feOffset/>
<feGaussianBlur stdDeviation="6"/>
<feComposite in2="hardAlpha" operator="out"/>
<feColorMatrix type="matrix" values="0 0 0 0 0 0 0 0 0 0 0 0 0 0 0 0 0 0 0.35 0"/>
<feBlend mode="normal" in2="BackgroundImageFix" result="effect1_dropShadow_1228_2181"/>
<feBlend mode="normal" in="SourceGraphic" in2="effect1_dropShadow_1228_2181" result="shape"/>
</filter>
<filter id="filter1_d_1228_2181" x="18.0312" y="45.6874" width="28.9375" height="26.3125" filterUnits="userSpaceOnUse" color-interpolation-filters="sRGB">
<feFlood flood-opacity="0" result="BackgroundImageFix"/>
<feColorMatrix in="SourceAlpha" type="matrix" values="0 0 0 0 0 0 0 0 0 0 0 0 0 0 0 0 0 0 127 0" result="hardAlpha"/>
<feOffset dy="6"/>
<feGaussianBlur stdDeviation="2.5"/>
<feComposite in2="hardAlpha" operator="out"/>
<feColorMatrix type="matrix" values="0 0 0 0 0 0 0 0 0 0 0 0 0 0 0 0 0 0 0.35 0"/>
<feBlend mode="normal" in2="BackgroundImageFix" result="effect1_dropShadow_1228_2181"/>
<feBlend mode="normal" in="SourceGraphic" in2="effect1_dropShadow_1228_2181" result="shape"/>
</filter>
</defs>
</svg>
