<svg width="41" height="49" viewBox="0 0 41 49" fill="none" xmlns="http://www.w3.org/2000/svg">
<path d="M20.5003 48.9999L11.0317 33.6874H29.9688L20.5003 48.9999Z" fill="white"/>
<ellipse cx="20.5" cy="20.4166" rx="20.5" ry="20.4166" fill="white"/>
<ellipse cx="20.4991" cy="20.4164" rx="17.7667" ry="17.6944" fill="#848EAA"/>
<path fill-rule="evenodd" clip-rule="evenodd" d="M14.4853 13.5268C15.2726 12.6715 16.3976 12.1873 17.7399 12.1873H20.734C20.9817 12.1873 21.1825 12.3906 21.1825 12.6414C21.1825 12.8922 20.9817 13.0955 20.734 13.0955H17.7399C16.6198 13.0955 15.7417 13.4939 15.1414 14.1461C14.5378 14.8018 14.182 15.7506 14.182 16.906V23.6479C14.182 24.8038 14.5364 25.7526 15.1389 26.408C15.738 27.0598 16.6159 27.4584 17.7399 27.4584H24.806C25.9305 27.4584 26.8085 27.0598 27.4077 26.408C28.0103 25.7526 28.3647 24.8038 28.3647 23.6479V20.3816C28.3647 20.1308 28.5654 19.9274 28.8131 19.9274C29.0608 19.9274 29.2615 20.1308 29.2615 20.3816V23.6479C29.2615 24.9913 28.8475 26.1748 28.0642 27.0269C27.2774 27.8826 26.1519 28.3666 24.806 28.3666H17.7399C16.3943 28.3666 15.269 27.8826 14.4824 27.0269C13.6992 26.1748 13.2852 24.9913 13.2852 23.6479V16.906C13.2852 15.5621 13.7013 14.3786 14.4853 13.5268Z" fill="white"/>
<path fill-rule="evenodd" clip-rule="evenodd" d="M24.9017 13.4969C24.9017 13.497 24.9018 13.4969 24.9017 13.4969L18.9177 19.5567C18.6836 19.7938 18.5487 20.1126 18.5404 20.4471L18.4765 23.0469H21.0165C21.3587 23.0469 21.6867 22.9092 21.9286 22.6642L27.9417 16.575C28.5118 15.9984 28.5122 15.0614 27.9417 14.4837L26.9673 13.4969M24.2679 12.8544C25.1885 11.9231 26.6805 11.9231 27.6012 12.8544L28.5759 13.8414C29.4964 14.7737 29.4967 16.2858 28.5757 17.2174L22.5628 23.3064C22.1529 23.7215 21.5968 23.9552 21.0165 23.9552H18.0168C17.8959 23.9552 17.7802 23.9058 17.6958 23.8181C17.6114 23.7305 17.5655 23.6121 17.5685 23.4898L17.6438 20.4245C17.6579 19.8573 17.8866 19.3165 18.2835 18.9145L24.2679 12.8544Z" fill="white"/>
<path fill-rule="evenodd" clip-rule="evenodd" d="M23.3579 13.7907C23.533 13.6134 23.817 13.6134 23.9921 13.7907L27.6485 17.4934C27.8236 17.6707 27.8236 17.9582 27.6485 18.1356C27.4733 18.3129 27.1894 18.3129 27.0143 18.1356L23.3579 14.4329C23.1828 14.2556 23.1828 13.9681 23.3579 13.7907Z" fill="white"/>
</svg>
