<svg width="22" height="22" viewBox="0 0 22 22" fill="none" xmlns="http://www.w3.org/2000/svg">
<g id="Iconly/Light/Image">
<g id="Image">
<path id="Stroke 1" fill-rule="evenodd" clip-rule="evenodd" d="M19.4422 7.24094V14.7127C19.4422 17.481 17.7097 19.4335 14.9413 19.4335H7.01217C4.24384 19.4335 2.52051 17.481 2.52051 14.7127V7.24094C2.52051 4.4726 4.25301 2.52102 7.01217 2.52102H14.9413C17.7097 2.52102 19.4422 4.4726 19.4422 7.24094Z" stroke="#55585C" stroke-width="1.5" stroke-linecap="round" stroke-linejoin="round"/>
<path id="Stroke 3" d="M4.84082 15.0617L6.24149 13.5831C6.72824 13.067 7.53949 13.0422 8.05649 13.5281C8.07207 13.5437 8.9154 14.4007 8.9154 14.4007C9.42415 14.9187 10.2556 14.9269 10.7735 14.4191C10.8074 14.3861 12.913 11.8322 12.913 11.8322C13.4557 11.1732 14.4301 11.0787 15.0901 11.6223C15.1341 11.659 17.1232 13.7004 17.1232 13.7004" stroke="#55585C" stroke-width="1.5" stroke-linecap="round" stroke-linejoin="round"/>
<path id="Stroke 5" fill-rule="evenodd" clip-rule="evenodd" d="M9.45297 8.37201C9.45297 9.26026 8.73339 9.97984 7.84514 9.97984C6.95689 9.97984 6.2373 9.26026 6.2373 8.37201C6.2373 7.48376 6.95689 6.76418 7.84514 6.76418C8.73339 6.76509 9.45297 7.48376 9.45297 8.37201Z" stroke="#55585C" stroke-width="1.5" stroke-linecap="round" stroke-linejoin="round"/>
</g>
</g>
</svg>
