<svg width="22" height="22" viewBox="0 0 22 22" fill="none" xmlns="http://www.w3.org/2000/svg">
<path d="M12.5 9.25V7.66421C12.5 7.399 12.6054 7.14464 12.7929 6.95711L13.5 6.25" stroke="#55585C" stroke-linecap="round"/>
<path d="M12.5 7.25H18.5" stroke="#55585C" stroke-linecap="round"/>
<path d="M12 3.25V5.25" stroke="#55585C" stroke-linecap="round"/>
<path d="M8 6.25L8.83205 5.00192C8.94156 4.83766 9 4.64465 9 4.44722V3.25" stroke="#55585C" stroke-linecap="round"/>
<path d="M12.5 11.25V12.25" stroke="#55585C" stroke-linecap="round"/>
<path d="M13 16.25H18C18.5523 16.25 19 15.8023 19 15.25V14.75" stroke="#55585C" stroke-linecap="round"/>
<path d="M19 11.75V3.75C19 3.19772 18.5523 2.75 18 2.75H4C3.44772 2.75 3 3.19772 3 3.75V15.25C3 15.8023 3.44772 16.25 4 16.25H8.58579C8.851 16.25 9.10536 16.3554 9.29289 16.5429L10 17.25" stroke="#55585C" stroke-linecap="round"/>
<path d="M13 16.25L11.5 17.25" stroke="#55585C" stroke-linecap="round"/>
<path d="M9 14.75V16.25" stroke="#55585C" stroke-linecap="round"/>
<path d="M12.5 14.25V16.25" stroke="#55585C" stroke-linecap="round"/>
<path d="M3.5 8.75H5M9 7.25V8.25C9 8.52614 8.77614 8.75 8.5 8.75V8.75M8.5 8.75V11.25M8.5 8.75H7M8.5 11.25H7M8.5 11.25H3H5M8.5 11.25L8.82322 11.5732C8.93641 11.6864 9 11.8399 9 12V12C9 12.1601 8.93641 12.3136 8.82322 12.4268L7.5 13.75M7 11.25V8.75M7 11.25H5M7 8.75H5M5 11.25V8.75" stroke="#55585C" stroke-linecap="round"/>
<path d="M7.5 16.75V18.25C7.5 18.8023 7.94772 19.25 8.5 19.25H12.5C13.0523 19.25 13.5 18.8023 13.5 18.25V16.75" stroke="#55585C" stroke-linecap="round"/>
</svg>
