<svg width="26" height="26" viewBox="0 0 26 26" fill="none" xmlns="http://www.w3.org/2000/svg">
<path d="M12.9948 18.0665V15.3181" stroke="#0D53DB" stroke-width="1.5" stroke-linecap="round" stroke-linejoin="round"/>
<path fill-rule="evenodd" clip-rule="evenodd" d="M19.7052 5.77441C21.536 5.77441 23.0093 7.25858 23.0093 9.08941V12.8161C20.3443 14.3761 16.8235 15.3186 12.9885 15.3186C9.15352 15.3186 5.64352 14.3761 2.97852 12.8161V9.07858C2.97852 7.24775 4.46268 5.77441 6.29352 5.77441H19.7052Z" stroke="#0D53DB" stroke-width="1.5" stroke-linecap="round" stroke-linejoin="round"/>
<path d="M16.7865 5.76967V5.37317C16.7865 4.0515 15.714 2.979 14.3923 2.979H11.5973C10.2756 2.979 9.20312 4.0515 9.20312 5.37317V5.76967" stroke="#0D53DB" stroke-width="1.5" stroke-linecap="round" stroke-linejoin="round"/>
<path d="M3.00586 16.7733L3.21061 19.4914C3.34928 21.3233 4.87569 22.7392 6.71194 22.7392H19.2775C21.1138 22.7392 22.6402 21.3233 22.7789 19.4914L22.9836 16.7733" stroke="#0D53DB" stroke-width="1.5" stroke-linecap="round" stroke-linejoin="round"/>
</svg>
