<svg width="26" height="26" viewBox="0 0 26 26" fill="none" xmlns="http://www.w3.org/2000/svg">
<path fill-rule="evenodd" clip-rule="evenodd" d="M17.6945 2.97925H8.3031C5.03035 2.97925 2.97852 5.2965 2.97852 8.57575V17.4244C2.97852 20.7037 5.0206 23.0209 8.3031 23.0209H17.6934C20.977 23.0209 23.0202 20.7037 23.0202 17.4244V8.57575C23.0202 5.2965 20.977 2.97925 17.6945 2.97925Z" stroke="#0D53DB" stroke-width="1.5" stroke-linecap="round" stroke-linejoin="round"/>
<path fill-rule="evenodd" clip-rule="evenodd" d="M11.5791 13.0001C11.5791 14.1084 10.681 15.0064 9.57274 15.0064C8.46449 15.0064 7.56641 14.1084 7.56641 13.0001C7.56641 11.8919 8.46449 10.9938 9.57274 10.9938H9.57599C10.6821 10.9949 11.5791 11.8929 11.5791 13.0001Z" stroke="#0D53DB" stroke-width="1.5" stroke-linecap="round" stroke-linejoin="round"/>
<path d="M11.582 13.0001H18.4265V15.0064" stroke="#0D53DB" stroke-width="1.5" stroke-linecap="round" stroke-linejoin="round"/>
<path d="M15.362 15.0065V13.0002" stroke="#0D53DB" stroke-width="1.5" stroke-linecap="round" stroke-linejoin="round"/>
</svg>
