<svg width="12" height="12" viewBox="0 0 12 12" fill="none" xmlns="http://www.w3.org/2000/svg">
<g clip-path="url(#clip0_1338_4451)">
<path fill-rule="evenodd" clip-rule="evenodd" d="M4.31157 0.5H7.68843C10.7703 0.5 11.5 1.22971 11.5 4.31157V7.68843C11.5 10.7703 10.7703 11.5 7.68843 11.5H4.31157C1.22971 11.5 0.5 10.7703 0.5 7.68843V4.31157C0.5 1.22971 1.22971 0.5 4.31157 0.5Z" fill="url(#paint0_linear_1338_4451)"/>
<path fill-rule="evenodd" clip-rule="evenodd" d="M9.33528 4.77758C9.38717 4.621 9.33528 4.50712 9.10546 4.50712H8.34186C8.14911 4.50712 8.06015 4.60676 8.00825 4.71352C8.00825 4.71352 7.61534 5.62455 7.06674 6.2153C6.88881 6.38612 6.80726 6.44306 6.71089 6.44306C6.65899 6.44306 6.59227 6.38612 6.59227 6.22954V4.77046C6.59227 4.58541 6.53296 4.5 6.36986 4.5H5.16887C5.05025 4.5 4.97612 4.58541 4.97612 4.67082C4.97612 4.84875 5.25042 4.89146 5.28007 5.38968V6.47153C5.28007 6.70641 5.23559 6.74911 5.13922 6.74911C4.87974 6.74911 4.24959 5.83096 3.8715 4.7847C3.79737 4.57829 3.72323 4.5 3.53048 4.5H2.75947C2.53707 4.5 2.5 4.59964 2.5 4.70641C2.5 4.89858 2.75947 5.86655 3.70841 7.14769C4.33856 8.02313 5.23559 8.49288 6.04367 8.49288C6.53296 8.49288 6.59227 8.38612 6.59227 8.20818V7.54626C6.59227 7.33274 6.63675 7.29715 6.79244 7.29715C6.90364 7.29715 7.1038 7.35409 7.55603 7.77402C8.07498 8.27224 8.16394 8.5 8.45307 8.5H9.21666C9.43907 8.5 9.54286 8.39324 9.48355 8.18683C9.41682 7.98043 9.16477 7.68149 8.83857 7.32562C8.66064 7.12633 8.39376 6.90569 8.31221 6.79893C8.20101 6.65658 8.23066 6.59964 8.31221 6.47153C8.3048 6.47153 9.2389 5.20463 9.33528 4.77758Z" fill="white"/>
</g>
<defs>
<linearGradient id="paint0_linear_1338_4451" x1="6" y1="0.5" x2="6" y2="11.5" gradientUnits="userSpaceOnUse">
<stop stop-color="#5C9DFF"/>
<stop offset="1" stop-color="#0D53DB"/>
</linearGradient>
<clipPath id="clip0_1338_4451">
<rect width="12" height="12" fill="white"/>
</clipPath>
</defs>
</svg>
