<svg width="12" height="12" viewBox="0 0 12 12" fill="none" xmlns="http://www.w3.org/2000/svg">
<g filter="url(#filter0_i_217_5129)">
<path d="M0.228614 7.12643C-0.58242 2.97103 0.718165 1.03964 4.87357 0.228613C9.02897 -0.582419 10.9604 0.718168 11.7714 4.87357C12.5824 9.02897 11.2818 10.9604 7.12643 11.7714C2.97103 12.5824 1.03964 11.2818 0.228614 7.12643Z" fill="#00E6BC"/>
<path d="M4.59315 4.78304C4.92587 5.81485 4.45606 6.89074 3.54366 7.18623C2.63126 7.48157 1.622 6.88455 1.28916 5.85288C1.27847 5.81947 1.26857 5.78612 1.25947 5.75279L0.712402 5.91768C0.72287 5.95479 0.733596 5.99187 0.745495 6.02879C1.18787 7.40018 2.52937 8.19357 3.74199 7.80103C4.95461 7.40835 5.57902 5.9784 5.13678 4.60699C5.13449 4.59992 5.13184 4.59301 5.1294 4.58594L4.58196 4.75102C4.58561 4.76175 4.58963 4.7723 4.59315 4.78304Z" fill="white"/>
<path d="M3.54396 7.1863C4.45637 6.89096 4.92603 5.81481 4.59329 4.78302C4.58977 4.77226 4.58576 4.7617 4.58212 4.75098L1.25977 5.75275C1.26885 5.78606 1.27863 5.81945 1.28932 5.85285C1.62216 6.88464 2.63155 7.48165 3.54396 7.1863Z" fill="#121215"/>
<path d="M2.8597 7.03587C2.88001 7.27093 2.70651 7.47776 2.47223 7.49799C2.23796 7.51822 2.0317 7.34413 2.0114 7.10921C1.99095 6.87417 2.16433 6.66733 2.3986 6.64711C2.63288 6.62688 2.83938 6.80095 2.8597 7.03587Z" fill="white"/>
<path d="M5.12959 4.58594L0.575195 5.9794" stroke="black" stroke-linecap="round" stroke-linejoin="round"/>
<path d="M10.12 3.11691C10.4529 4.1487 9.98295 5.22474 9.07054 5.52023C8.15813 5.81557 7.14886 5.21841 6.81602 4.18676C6.80533 4.15336 6.79545 4.11999 6.78634 4.08667L6.23926 4.25156C6.24973 4.28866 6.26049 4.32587 6.27238 4.36279C6.71474 5.73418 8.05625 6.52757 9.26875 6.13505C10.4814 5.74237 11.1059 4.31226 10.6637 2.94087C10.6614 2.93379 10.6586 2.92689 10.6564 2.91992L10.1088 3.08502C10.1125 3.09575 10.1165 3.10616 10.12 3.11691Z" fill="white"/>
<path d="M9.07033 5.52005C9.98274 5.2247 10.4527 4.14866 10.1198 3.11686C10.1163 3.10612 10.1123 3.09569 10.1086 3.08496L6.78613 4.08661C6.79524 4.11994 6.80514 4.1533 6.81583 4.1867C7.14866 5.21849 8.15792 5.81539 9.07033 5.52005Z" fill="#121215"/>
<path d="M8.38521 5.36987C8.40552 5.60491 8.23228 5.81173 7.99789 5.83209C7.76373 5.85218 7.55723 5.67824 7.53677 5.44321C7.51646 5.20815 7.68984 5.00134 7.9241 4.98109C8.15837 4.96086 8.36503 5.13493 8.38521 5.36987Z" fill="white"/>
<path d="M10.6566 2.91992L6.08203 4.30174" stroke="black" stroke-linecap="round" stroke-linejoin="round"/>
<path d="M6.19922 8.30649C6.19922 8.30649 7.40053 8.55928 7.56833 7.39746" stroke="#301E0D" stroke-linecap="round" stroke-linejoin="round"/>
</g>
<defs>
<filter id="filter0_i_217_5129" x="0" y="0" width="12" height="16" filterUnits="userSpaceOnUse" color-interpolation-filters="sRGB">
<feFlood flood-opacity="0" result="BackgroundImageFix"/>
<feBlend mode="normal" in="SourceGraphic" in2="BackgroundImageFix" result="shape"/>
<feColorMatrix in="SourceAlpha" type="matrix" values="0 0 0 0 0 0 0 0 0 0 0 0 0 0 0 0 0 0 127 0" result="hardAlpha"/>
<feOffset dy="4"/>
<feGaussianBlur stdDeviation="2"/>
<feComposite in2="hardAlpha" operator="arithmetic" k2="-1" k3="1"/>
<feColorMatrix type="matrix" values="0 0 0 0 0 0 0 0 0 0 0 0 0 0 0 0 0 0 0.25 0"/>
<feBlend mode="normal" in2="shape" result="effect1_innerShadow_217_5129"/>
</filter>
</defs>
</svg>
