<svg width="90" height="90" viewBox="0 0 90 90" fill="none" xmlns="http://www.w3.org/2000/svg">
<path d="M7.5 37.5001L40.3147 11.2482C43.0537 9.05691 46.9463 9.05691 49.6853 11.2482L82.5 37.5001" stroke="white" stroke-width="2" stroke-linecap="round" stroke-linejoin="round"/>
<path d="M35.5411 15.1854L20.5411 27.3729C17.8177 29.5857 16.4559 30.6921 15.7279 32.2215C15 33.751 15 35.5055 15 39.0147V52.5C15 66.642 15 73.7134 19.3934 78.1065C23.7868 82.5 30.8579 82.5 45 82.5C59.142 82.5 66.2134 82.5 70.6065 78.1065C75 73.7134 75 66.642 75 52.5V39.0147C75 35.5055 75 33.751 74.2721 32.2215C73.5439 30.6921 72.1822 29.5857 69.459 27.3729L54.459 15.1854C49.9282 11.5042 47.6629 9.66357 45 9.66357C42.3371 9.66357 40.0717 11.5042 35.5411 15.1854Z" stroke="white" stroke-width="2"/>
<path d="M36.5625 60.9375H53.4375" stroke="white" stroke-width="2" stroke-linecap="round"/>
</svg>
