<svg width="15" height="15" viewBox="0 0 15 15" fill="none" xmlns="http://www.w3.org/2000/svg">
<g id="Iconly/Light/Edit Square">
<g id="Edit Square">
<path id="Stroke 1" d="M7.1825 1.74312H4.84562C2.92375 1.74312 1.71875 3.10374 1.71875 5.02999V10.2262C1.71875 12.1525 2.91812 13.5131 4.84562 13.5131H10.3606C12.2887 13.5131 13.4881 12.1525 13.4881 10.2262V7.70874" stroke="#55585C" stroke-width="0.7" stroke-linecap="round" stroke-linejoin="round"/>
<path id="Stroke 3" fill-rule="evenodd" clip-rule="evenodd" d="M5.51812 6.82556L10.1887 2.15493C10.7706 1.57368 11.7137 1.57368 12.2956 2.15493L13.0562 2.91556C13.6381 3.49743 13.6381 4.44118 13.0562 5.02243L8.36312 9.71556C8.10875 9.96993 7.76375 10.1131 7.40375 10.1131H5.0625L5.12125 7.75056C5.13 7.40306 5.27187 7.07181 5.51812 6.82556Z" stroke="#55585C" stroke-width="0.7" stroke-linecap="round" stroke-linejoin="round"/>
<path id="Stroke 5" d="M9.47852 2.87646L12.3323 5.73021" stroke="#55585C" stroke-width="0.7" stroke-linecap="round" stroke-linejoin="round"/>
</g>
</g>
</svg>
