<svg width="15" height="15" viewBox="0 0 15 15" fill="none" xmlns="http://www.w3.org/2000/svg">
<g id="Iconly/Light/Buy">
<g id="Buy">
<path id="Stroke 1" d="M1.71875 2.0311L3.01875 2.2561L3.62063 9.42672C3.66875 10.0123 4.15813 10.4617 4.74563 10.4598H11.5638C12.1244 10.4611 12.6 10.0486 12.6794 9.4936L13.2725 5.39485C13.3388 4.93672 13.0206 4.51172 12.5631 4.44547C12.5231 4.43985 3.2275 4.43672 3.2275 4.43672" stroke="#55585C" stroke-width="0.7" stroke-linecap="round" stroke-linejoin="round"/>
<path id="Stroke 3" d="M8.82812 6.7466H10.5613" stroke="#55585C" stroke-width="0.7" stroke-linecap="round" stroke-linejoin="round"/>
<path id="Stroke 5" fill-rule="evenodd" clip-rule="evenodd" d="M4.47281 12.6265C4.66094 12.6265 4.81281 12.779 4.81281 12.9665C4.81281 13.1546 4.66094 13.3071 4.47281 13.3071C4.28469 13.3071 4.13281 13.1546 4.13281 12.9665C4.13281 12.779 4.28469 12.6265 4.47281 12.6265Z" fill="#55585C" stroke="#55585C" stroke-width="0.7" stroke-linecap="round" stroke-linejoin="round"/>
<path id="Stroke 7" fill-rule="evenodd" clip-rule="evenodd" d="M11.5216 12.6265C11.7098 12.6265 11.8623 12.779 11.8623 12.9665C11.8623 13.1546 11.7098 13.3071 11.5216 13.3071C11.3335 13.3071 11.1816 13.1546 11.1816 12.9665C11.1816 12.779 11.3335 12.6265 11.5216 12.6265Z" fill="#55585C" stroke="#55585C" stroke-width="0.7" stroke-linecap="round" stroke-linejoin="round"/>
</g>
</g>
</svg>
