<svg width="19" height="19" viewBox="0 0 19 19" fill="none" xmlns="http://www.w3.org/2000/svg">
<g clip-path="url(#clip0_1283_211)">
<path d="M18.8674 9.52964C18.8674 14.7264 14.6539 18.9399 9.45488 18.9407C4.25958 18.9407 0.0461225 14.7264 0.0468754 9.52889C0.0453695 4.33133 4.25883 0.117874 9.45638 0.117874C14.6539 0.117874 18.8674 4.33209 18.8674 9.52964V9.52964Z" fill="white"/>
<path d="M13.159 7.22411C13.0378 5.96368 11.9498 5.54128 10.5749 5.42081V3.67172H9.51103V5.37413C9.23169 5.37413 8.94557 5.3794 8.66171 5.38542V3.67172H7.59781L7.59705 5.4193C7.36665 5.42382 7.14002 5.42834 6.91941 5.42834V5.42307L5.45193 5.42232V6.55926C5.45193 6.55926 6.238 6.5442 6.22444 6.55851C6.65588 6.55851 6.79592 6.80849 6.83658 7.02458V9.01687C6.8667 9.01687 6.9051 9.01838 6.94877 9.0244H6.83658L6.83583 11.8156C6.81701 11.9511 6.7372 12.1672 6.43602 12.1679C6.44957 12.18 5.66275 12.1679 5.66275 12.1679L5.45117 13.4389H6.83658C7.09409 13.4389 7.34783 13.4434 7.5963 13.4449L7.59705 15.2136H8.66021V13.4638C8.9516 13.4698 9.23395 13.472 9.51028 13.472L9.50953 15.2136H10.5734V13.4487C12.3624 13.3463 13.6161 12.8953 13.7712 11.2147C13.8969 9.86167 13.2607 9.25706 12.245 9.0131C12.8631 8.69988 13.2494 8.14647 13.159 7.22411V7.22411ZM11.6697 11.0054C11.6697 12.3268 9.40713 12.177 8.68505 12.177V9.83306C9.40713 9.83457 11.6697 9.62751 11.6697 11.0054V11.0054ZM11.1743 7.69922C11.1743 8.90167 9.2859 8.76087 8.68505 8.76162V6.63681C9.28666 6.63681 11.175 6.44557 11.1743 7.69922Z" fill="black"/>
<path d="M6.83984 8.96991H6.99796V9.08662H6.83984V8.96991Z" fill="black"/>
</g>
<defs>
<clipPath id="clip0_1283_211">
<rect width="19" height="19" fill="white"/>
</clipPath>
</defs>
</svg>
