<svg width="13" height="13" viewBox="0 0 13 13" fill="none" xmlns="http://www.w3.org/2000/svg">
<path d="M6.24967 12.63H6.76009C9.53676 12.63 10.92 12.63 11.7775 11.7725C12.6299 10.915 12.6299 9.52667 12.6299 6.76021V6.23959C12.6299 3.48334 12.6299 2.095 11.7775 1.2375C10.92 0.380005 9.53165 0.380005 6.76009 0.380005H6.24967C3.47301 0.380005 2.08978 0.380005 1.23228 1.2375C0.379883 2.095 0.379883 3.48334 0.379883 6.2498V6.77042C0.379883 9.52667 0.379883 10.915 1.23738 11.7725C2.09488 12.63 3.48322 12.63 6.24967 12.63Z" fill="#0077FF"/>
<path d="M6.85658 9.13C4.16599 9.13 2.63133 7.32351 2.56738 4.3175H3.91513C3.9594 6.52384 4.953 7.4584 5.74001 7.65109V4.3175H7.00906V6.22034C7.78623 6.13845 8.60275 5.27133 8.8782 4.3175H10.1473C10.0435 4.81219 9.83655 5.28057 9.53948 5.69336C9.24241 6.10616 8.86156 6.45447 8.42076 6.71653C8.9128 6.95598 9.34739 7.2949 9.69587 7.71092C10.0443 8.12694 10.2988 8.61061 10.4424 9.13H9.04544C8.91654 8.67887 8.65454 8.27503 8.29229 7.9691C7.93004 7.66317 7.48365 7.46876 7.00906 7.41022V9.13H6.85658V9.13Z" fill="white"/>
</svg>
