<svg width="26" height="26" viewBox="0 0 26 26" fill="none" xmlns="http://www.w3.org/2000/svg">
<path d="M9.92097 22.5023V19.18C9.92095 18.335 10.6099 17.6484 11.4634 17.6427H14.59C15.4476 17.6427 16.1429 18.331 16.1429 19.18V19.18V22.5126C16.1427 23.2301 16.7211 23.8165 17.4456 23.8333H19.53C21.6079 23.8333 23.2923 22.1657 23.2923 20.1086V20.1086V10.6576C23.2812 9.84836 22.8974 9.08842 22.2501 8.59408L15.1215 2.90904C13.8727 1.91916 12.0974 1.91916 10.8485 2.90904L3.75118 8.6044C3.10143 9.09673 2.71699 9.85793 2.70898 10.6679V20.1086C2.70898 22.1657 4.39343 23.8333 6.4713 23.8333H8.55569C9.2982 23.8333 9.90012 23.2374 9.90012 22.5023V22.5023" stroke="#0D53DB" stroke-width="1.5" stroke-linecap="round" stroke-linejoin="round"/>
</svg>
