<svg width="65" height="73" viewBox="0 0 65 73" fill="none" xmlns="http://www.w3.org/2000/svg">
<g filter="url(#filter0_d_1229_2191)">
<g filter="url(#filter1_d_1229_2191)">
<path d="M32.5003 60.9999L23.0317 45.6874H41.9688L32.5003 60.9999Z" fill="white"/>
</g>
<ellipse cx="32.5" cy="32.4166" rx="20.5" ry="20.4166" fill="white"/>
<ellipse cx="32.4991" cy="32.4164" rx="17.7667" ry="17.6944" fill="#848EAA"/>
</g>
<path d="M23.4648 24.0689L25.3526 24.3997L26.2265 34.9439C26.2964 35.805 27.007 36.4658 27.8601 36.463H37.7606C38.5747 36.4649 39.2653 35.8583 39.3806 35.0422L40.2419 29.0151C40.3381 28.3415 39.8761 27.7165 39.2118 27.6191C39.1537 27.6108 25.6557 27.6063 25.6557 27.6063" stroke="white" stroke-linecap="round" stroke-linejoin="round"/>
<path fill-rule="evenodd" clip-rule="evenodd" d="M33.3398 31.0028C33.3398 30.752 33.5406 30.5487 33.7883 30.5487H36.3049C36.5526 30.5487 36.7534 30.752 36.7534 31.0028C36.7534 31.2536 36.5526 31.4569 36.3049 31.4569H33.7883C33.5406 31.4569 33.3398 31.2536 33.3398 31.0028Z" fill="white"/>
<path fill-rule="evenodd" clip-rule="evenodd" d="M27.4625 39.649C27.7356 39.649 27.9562 39.8732 27.9562 40.1489C27.9562 40.4256 27.7356 40.6498 27.4625 40.6498C27.1893 40.6498 26.9688 40.4256 26.9688 40.1489C26.9688 39.8732 27.1893 39.649 27.4625 39.649Z" fill="white"/>
<path fill-rule="evenodd" clip-rule="evenodd" d="M27.4636 40.1031C27.4387 40.1031 27.4184 40.1235 27.4184 40.149C27.4184 40.1759 27.4392 40.1957 27.4636 40.1957C27.4881 40.1957 27.5089 40.1759 27.5089 40.149C27.5089 40.1235 27.4886 40.1031 27.4636 40.1031ZM26.5215 40.149C26.5215 39.623 26.9423 39.1949 27.4636 39.1949C27.985 39.1949 28.4058 39.623 28.4058 40.149C28.4058 40.6753 27.9855 41.1039 27.4636 41.1039C26.9417 41.1039 26.5215 40.6753 26.5215 40.149Z" fill="white"/>
<path fill-rule="evenodd" clip-rule="evenodd" d="M37.6988 39.649C37.972 39.649 38.1934 39.8732 38.1934 40.1489C38.1934 40.4255 37.972 40.6498 37.6988 40.6498C37.4256 40.6498 37.2051 40.4255 37.2051 40.1489C37.2051 39.8732 37.4256 39.649 37.6988 39.649Z" fill="white"/>
<path fill-rule="evenodd" clip-rule="evenodd" d="M37.7 40.103C37.675 40.103 37.6547 40.1234 37.6547 40.1489C37.6547 40.1758 37.6755 40.1957 37.7 40.1957C37.7255 40.1957 37.7461 40.1747 37.7461 40.1489C37.7461 40.1245 37.726 40.103 37.7 40.103ZM36.7578 40.1489C36.7578 39.6229 37.1786 39.1948 37.7 39.1948C38.2203 39.1948 38.643 39.6218 38.643 40.1489C38.643 40.6763 38.2208 41.1039 37.7 41.1039C37.178 41.1039 36.7578 40.6752 36.7578 40.1489Z" fill="white"/>
<defs>
<filter id="filter0_d_1229_2191" x="0" y="0" width="65" height="72.9999" filterUnits="userSpaceOnUse" color-interpolation-filters="sRGB">
<feFlood flood-opacity="0" result="BackgroundImageFix"/>
<feColorMatrix in="SourceAlpha" type="matrix" values="0 0 0 0 0 0 0 0 0 0 0 0 0 0 0 0 0 0 127 0" result="hardAlpha"/>
<feOffset/>
<feGaussianBlur stdDeviation="6"/>
<feComposite in2="hardAlpha" operator="out"/>
<feColorMatrix type="matrix" values="0 0 0 0 0 0 0 0 0 0 0 0 0 0 0 0 0 0 0.35 0"/>
<feBlend mode="normal" in2="BackgroundImageFix" result="effect1_dropShadow_1229_2191"/>
<feBlend mode="normal" in="SourceGraphic" in2="effect1_dropShadow_1229_2191" result="shape"/>
</filter>
<filter id="filter1_d_1229_2191" x="18.0312" y="45.6874" width="28.9375" height="26.3125" filterUnits="userSpaceOnUse" color-interpolation-filters="sRGB">
<feFlood flood-opacity="0" result="BackgroundImageFix"/>
<feColorMatrix in="SourceAlpha" type="matrix" values="0 0 0 0 0 0 0 0 0 0 0 0 0 0 0 0 0 0 127 0" result="hardAlpha"/>
<feOffset dy="6"/>
<feGaussianBlur stdDeviation="2.5"/>
<feComposite in2="hardAlpha" operator="out"/>
<feColorMatrix type="matrix" values="0 0 0 0 0 0 0 0 0 0 0 0 0 0 0 0 0 0 0.35 0"/>
<feBlend mode="normal" in2="BackgroundImageFix" result="effect1_dropShadow_1229_2191"/>
<feBlend mode="normal" in="SourceGraphic" in2="effect1_dropShadow_1229_2191" result="shape"/>
</filter>
</defs>
</svg>
