<svg width="26" height="26" viewBox="0 0 26 26" fill="none" xmlns="http://www.w3.org/2000/svg">
<path d="M9.92048 22.5023V19.18C9.92046 18.335 10.6094 17.6484 11.4629 17.6427H14.5895C15.4471 17.6427 16.1424 18.331 16.1424 19.18V19.18V22.5127C16.1422 23.2301 16.7206 23.8165 17.4451 23.8333H19.5295C21.6074 23.8333 23.2918 22.1657 23.2918 20.1086V20.1086V10.6576C23.2807 9.84839 22.8969 9.08845 22.2496 8.59411L15.121 2.90907C13.8722 1.91919 12.0969 1.91919 10.848 2.90907L3.75069 8.60443C3.10094 9.09676 2.7165 9.85796 2.7085 10.668V20.1086C2.7085 22.1657 4.39294 23.8333 6.47082 23.8333H8.5552C9.29771 23.8333 9.89963 23.2374 9.89963 22.5023V22.5023" stroke="#0D53DB" stroke-width="1.5" stroke-linecap="round" stroke-linejoin="round"/>
</svg>
