<svg width="13" height="13" viewBox="0 0 13 13" fill="none" xmlns="http://www.w3.org/2000/svg">
<g clip-path="url(#clip0_104_5124)">
<path d="M13 6.55059C13 6.09877 12.9642 5.64451 12.8878 5.20001H6.76001V7.75951H10.2691C10.1235 8.585 9.52512 9.41598 8.84001 9.88001L8.97051 11.44L10.92 11.44C12.1494 10.2824 13 8.57279 13 6.55059Z" fill="#4285F4"/>
<path d="M6.60167 13C8.3587 13 9.84044 12.4304 10.92 11.4471L8.84003 9.87999C8.25595 10.2724 7.48258 10.4544 6.60407 10.4544C4.90449 10.4544 3.37708 9.32217 2.86003 7.79999H0.780029V9.4569C1.88595 11.6291 4.13849 13 6.60167 13Z" fill="#34A853"/>
<path d="M2.85998 7.80001C2.56196 7.00895 2.69196 5.99107 2.98998 5.20001L3.11998 3.64001L0.779969 3.51001C-0.229096 5.3098 -0.25229 7.56022 0.756776 9.36001L2.85998 7.80001Z" fill="#FBBC04"/>
<path d="M6.72708 2.5447C7.67587 2.53053 8.59287 2.87543 9.28001 3.50855L11.18 1.67299C9.97693 0.581575 8.38012 -0.0184657 6.72708 0.000433255C4.21083 0.000433255 1.90977 1.33662 0.780029 3.51L2.99061 5.2C3.51636 3.67627 4.99089 2.5447 6.72708 2.5447Z" fill="#EA4335"/>
</g>
<defs>
<clipPath id="clip0_104_5124">
<rect width="13" height="13" fill="white"/>
</clipPath>
</defs>
</svg>
