<svg width="26" height="26" viewBox="0 0 26 26" fill="none" xmlns="http://www.w3.org/2000/svg">
<path d="M12.9948 18.0665V15.3181" stroke="#0D53DB" stroke-width="1.5" stroke-linecap="round" stroke-linejoin="round"/>
<path fill-rule="evenodd" clip-rule="evenodd" d="M19.7057 5.77441C21.5365 5.77441 23.0098 7.25858 23.0098 9.08941V12.8161C20.3448 14.3761 16.824 15.3186 12.989 15.3186C9.154 15.3186 5.644 14.3761 2.979 12.8161V9.07858C2.979 7.24775 4.46317 5.77441 6.294 5.77441H19.7057Z" stroke="#0D53DB" stroke-width="1.5" stroke-linecap="round" stroke-linejoin="round"/>
<path d="M16.7865 5.76967V5.37317C16.7865 4.0515 15.714 2.979 14.3923 2.979H11.5973C10.2756 2.979 9.20312 4.0515 9.20312 5.37317V5.76967" stroke="#0D53DB" stroke-width="1.5" stroke-linecap="round" stroke-linejoin="round"/>
<path d="M3.00537 16.7733L3.21012 19.4914C3.34879 21.3233 4.8752 22.7392 6.71145 22.7392H19.277C21.1133 22.7392 22.6397 21.3233 22.7784 19.4914L22.9831 16.7733" stroke="#0D53DB" stroke-width="1.5" stroke-linecap="round" stroke-linejoin="round"/>
</svg>
