<svg width="26" height="26" viewBox="0 0 26 26" fill="none" xmlns="http://www.w3.org/2000/svg">
<path fill-rule="evenodd" clip-rule="evenodd" d="M10.3907 16.4741C14.3871 16.4741 17.8028 17.0796 17.8028 19.4987C17.8028 21.9178 14.4098 22.5407 10.3907 22.5407C6.39318 22.5407 2.97852 21.9406 2.97852 19.5204C2.97852 17.1002 6.37043 16.4741 10.3907 16.4741Z" stroke="#0D53DB" stroke-width="1.5" stroke-linecap="round" stroke-linejoin="round"/>
<path fill-rule="evenodd" clip-rule="evenodd" d="M10.3907 13.0215C7.76683 13.0215 5.63916 10.8949 5.63916 8.27105C5.63916 5.64721 7.76683 3.52063 10.3907 3.52063C13.0134 3.52063 15.1411 5.64721 15.1411 8.27105C15.1508 10.8851 13.0383 13.0117 10.4242 13.0215H10.3907Z" stroke="#0D53DB" stroke-width="1.5" stroke-linecap="round" stroke-linejoin="round"/>
<path d="M17.8564 11.7884C19.5909 11.5447 20.9266 10.0562 20.9299 8.25457C20.9299 6.47898 19.6353 5.00565 17.9377 4.72723" stroke="#0D53DB" stroke-width="1.5" stroke-linecap="round" stroke-linejoin="round"/>
<path d="M20.145 15.9599C21.8253 16.2101 22.9985 16.7995 22.9985 18.0128C22.9985 18.8481 22.446 19.3897 21.5534 19.7288" stroke="#0D53DB" stroke-width="1.5" stroke-linecap="round" stroke-linejoin="round"/>
</svg>
