<svg width="26" height="26" viewBox="0 0 26 26" fill="none" xmlns="http://www.w3.org/2000/svg">
<path fill-rule="evenodd" clip-rule="evenodd" d="M17.6955 2.97925H8.30408C5.03133 2.97925 2.97949 5.2965 2.97949 8.57575V17.4244C2.97949 20.7037 5.02158 23.0209 8.30408 23.0209H17.6944C20.978 23.0209 23.0212 20.7037 23.0212 17.4244V8.57575C23.0212 5.2965 20.978 2.97925 17.6955 2.97925Z" stroke="#0D53DB" stroke-width="1.5" stroke-linecap="round" stroke-linejoin="round"/>
<path fill-rule="evenodd" clip-rule="evenodd" d="M11.5801 13.0001C11.5801 14.1083 10.682 15.0064 9.57372 15.0064C8.46547 15.0064 7.56738 14.1083 7.56738 13.0001C7.56738 11.8918 8.46547 10.9937 9.57372 10.9937H9.57697C10.6831 10.9948 11.5801 11.8929 11.5801 13.0001Z" stroke="#0D53DB" stroke-width="1.5" stroke-linecap="round" stroke-linejoin="round"/>
<path d="M11.583 13.0001H18.4275V15.0065" stroke="#0D53DB" stroke-width="1.5" stroke-linecap="round" stroke-linejoin="round"/>
<path d="M15.3639 15.0065V13.0002" stroke="#0D53DB" stroke-width="1.5" stroke-linecap="round" stroke-linejoin="round"/>
</svg>
