<svg width="26" height="26" viewBox="0 0 26 26" fill="none" xmlns="http://www.w3.org/2000/svg">
<path d="M12.9948 18.0665V15.3181" stroke="#0D53DB" stroke-width="1.5" stroke-linecap="round" stroke-linejoin="round"/>
<path fill-rule="evenodd" clip-rule="evenodd" d="M19.7057 5.77438C21.5365 5.77438 23.0098 7.25855 23.0098 9.08938V12.816C20.3448 14.376 16.824 15.3185 12.989 15.3185C9.154 15.3185 5.644 14.376 2.979 12.816V9.07855C2.979 7.24772 4.46317 5.77438 6.294 5.77438H19.7057Z" stroke="#0D53DB" stroke-width="1.5" stroke-linecap="round" stroke-linejoin="round"/>
<path d="M16.7865 5.76961V5.37311C16.7865 4.05144 15.714 2.97894 14.3923 2.97894H11.5973C10.2756 2.97894 9.20312 4.05144 9.20312 5.37311V5.76961" stroke="#0D53DB" stroke-width="1.5" stroke-linecap="round" stroke-linejoin="round"/>
<path d="M3.00537 16.7732L3.21012 19.4913C3.34879 21.3232 4.8752 22.7392 6.71145 22.7392H19.277C21.1133 22.7392 22.6397 21.3232 22.7784 19.4913L22.9831 16.7732" stroke="#0D53DB" stroke-width="1.5" stroke-linecap="round" stroke-linejoin="round"/>
</svg>
