<svg width="23" height="23" viewBox="0 0 23 23" fill="none" xmlns="http://www.w3.org/2000/svg">
<g opacity="0.4">
<path fill-rule="evenodd" clip-rule="evenodd" d="M20.9767 15.2333H17.0974C15.2795 15.2333 13.7998 13.7546 13.7988 11.9376C13.7988 10.1187 15.2785 8.63899 17.0974 8.63803H20.9767C21.3735 8.63803 21.6955 8.96003 21.6955 9.35678C21.6955 9.75353 21.3735 10.0755 20.9767 10.0755H17.0974C16.071 10.0765 15.2363 10.9112 15.2363 11.9366C15.2363 12.9611 16.072 13.7958 17.0974 13.7958H20.9767C21.3735 13.7958 21.6955 14.1178 21.6955 14.5145C21.6955 14.9113 21.3735 15.2333 20.9767 15.2333" fill="#010827"/>
<path fill-rule="evenodd" clip-rule="evenodd" d="M17.5363 12.5959H17.2373C16.8406 12.5959 16.5186 12.2739 16.5186 11.8772C16.5186 11.4804 16.8406 11.1584 17.2373 11.1584H17.5363C17.9331 11.1584 18.2551 11.4804 18.2551 11.8772C18.2551 12.2739 17.9331 12.5959 17.5363 12.5959" fill="#010827"/>
<mask id="mask0_256_4300" style="mask-type:alpha" maskUnits="userSpaceOnUse" x="1" y="2" width="21" height="20">
<path fill-rule="evenodd" clip-rule="evenodd" d="M1.91699 2.875H21.6956V21.249H1.91699V2.875Z" fill="white"/>
</mask>
<g mask="url(#mask0_256_4300)">
<path fill-rule="evenodd" clip-rule="evenodd" d="M7.66508 4.3125C5.28841 4.3125 3.35449 6.24642 3.35449 8.62308V15.501C3.35449 17.8777 5.28841 19.8116 7.66508 19.8116H15.9489C18.3256 19.8116 20.2585 17.8777 20.2585 15.501V8.62308C20.2585 6.24642 18.3256 4.3125 15.9489 4.3125H7.66508ZM15.9489 21.2491H7.66508C4.49587 21.2491 1.91699 18.6702 1.91699 15.501V8.62308C1.91699 5.45292 4.49587 2.875 7.66508 2.875H15.9489C19.1181 2.875 21.696 5.45292 21.696 8.62308V15.501C21.696 18.6702 19.1181 21.2491 15.9489 21.2491V21.2491Z" fill="#010827"/>
</g>
<path fill-rule="evenodd" clip-rule="evenodd" d="M12.1565 8.66151H6.98242C6.58567 8.66151 6.26367 8.33951 6.26367 7.94276C6.26367 7.54601 6.58567 7.22401 6.98242 7.22401H12.1565C12.5532 7.22401 12.8752 7.54601 12.8752 7.94276C12.8752 8.33951 12.5532 8.66151 12.1565 8.66151" fill="#010827"/>
</g>
</svg>
