<svg width="164" height="41" viewBox="0 0 164 41" fill="none" xmlns="http://www.w3.org/2000/svg">
<path d="M50.3581 14.745H45.6925V21.2065H42.481V3.3877H49.8397C54.6359 3.3877 57.0341 5.2723 57.0341 9.0415C57.0341 9.79533 56.9203 10.4995 56.6927 11.1539C56.4651 11.8 56.1786 12.3054 55.8329 12.6699C55.1418 13.3906 54.5138 13.842 53.949 14.0243L53.6203 14.1361L58.1467 21.2065H54.518L50.3581 14.745ZM45.6925 12.0486H49.8397C52.3938 12.0486 53.6708 11.0545 53.6708 9.06635C53.6708 7.0782 52.3938 6.08412 49.8397 6.08412H45.6925V12.0486ZM76.6196 16.1988C76.6196 17.9301 76.059 19.1976 74.9379 20.0012C73.8168 20.8047 72.055 21.2065 69.6527 21.2065H61.3962V3.3877H69.6021C73.6566 3.3877 75.6881 5.00307 75.6966 8.23381C75.6966 8.73913 75.608 9.21545 75.431 9.66279C75.2539 10.1101 75.0306 10.4622 74.7609 10.719C74.2383 11.2326 73.7619 11.5722 73.3321 11.7379L73.0539 11.8125V11.9492C73.1467 11.9574 73.2773 11.9823 73.4459 12.0237C73.5892 12.0568 73.8716 12.1687 74.2931 12.3592C74.6808 12.5415 75.0433 12.7734 75.3804 13.0551C75.6754 13.3119 75.962 13.7302 76.2402 14.3101C76.4931 14.865 76.6196 15.4947 76.6196 16.1988ZM64.6079 18.6095H69.7412C72.0845 18.6095 73.2563 17.7438 73.2563 16.0125C73.2563 14.2811 72.0845 13.4154 69.7412 13.4154H64.6079V18.6095ZM64.6079 10.9302H69.2481C71.2965 10.9302 72.3206 10.106 72.3206 8.45747C72.3206 6.80898 71.2965 5.98472 69.2481 5.98472H64.6079V10.9302ZM94.5738 21.2065H80.3874V3.3877H94.5738V6.08412H83.5989V10.7438H92.9681V13.3906H83.5989V18.5101H94.5738V21.2065Z" fill="white"/>
<path d="M48.7584 35.3451H47.7911L45.433 31.8348H42.43V35.3451H41.5767V26.4357H45.1865C46.1642 26.4357 46.9334 26.676 47.494 27.1564C48.046 27.637 48.3221 28.2975 48.3221 29.1384C48.3221 29.5111 48.2611 29.857 48.1388 30.176C48.0209 30.4907 47.8669 30.7414 47.6773 30.9277C47.5045 31.1058 47.3169 31.2549 47.1147 31.375C46.7816 31.5779 46.5226 31.6794 46.3371 31.6794L48.7584 35.3451ZM42.43 27.2V31.0706H45.1865C45.8903 31.0706 46.4424 30.9007 46.8428 30.5611C47.2431 30.2173 47.4434 29.7431 47.4434 29.1384C47.4434 28.5378 47.2431 28.0635 46.8428 27.7156C46.4339 27.3719 45.8819 27.2 45.1865 27.2H42.43ZM50.3705 29.1073H51.1734V32.4437C51.1734 33.2306 51.3798 33.8084 51.7929 34.177C52.206 34.5498 52.7455 34.7362 53.4113 34.7362C54.1362 34.7362 54.6926 34.5209 55.0803 34.0901C55.4639 33.6634 55.6556 33.1064 55.6556 32.4188V29.1073H56.4585V35.3451H55.6556V34.3635H55.5987C55.5523 34.467 55.449 34.5934 55.2889 34.7424C55.1668 34.8626 55.0172 34.9765 54.8401 35.0841C54.6631 35.1918 54.4249 35.283 54.1257 35.3575C53.8306 35.432 53.5251 35.4694 53.209 35.4694C52.3915 35.4694 51.7129 35.2292 51.1734 34.7486C50.6381 34.2723 50.3705 33.5558 50.3705 32.5989V29.1073ZM63.5708 33.5992C63.5708 33.3341 63.4527 33.1229 63.2167 32.9655C62.9807 32.8039 62.6666 32.7046 62.2748 32.6674C61.8617 32.626 61.4571 32.5741 61.0609 32.512C60.6268 32.4498 60.2243 32.3753 59.8535 32.2883C59.4826 32.2096 59.1707 32.0398 58.9178 31.7788C58.6734 31.5262 58.5511 31.1969 58.5511 30.791C58.5511 30.2069 58.8082 29.7596 59.3223 29.449C59.8366 29.1384 60.5109 28.983 61.3454 28.983C62.1925 28.983 62.8732 29.1549 63.3874 29.4986C63.8973 29.8384 64.1524 30.3499 64.1524 31.0333H63.3557C63.3557 30.1593 62.6856 29.7223 61.3454 29.7223C60.0177 29.7223 59.354 30.0786 59.354 30.791C59.354 31.0436 59.4719 31.2467 59.708 31.3999C59.9441 31.5532 60.2601 31.6504 60.6563 31.6919C61.1157 31.7457 61.5182 31.7975 61.8637 31.8472C62.3232 31.9217 62.7278 31.9984 63.0776 32.0771C63.4485 32.1682 63.7582 32.3422 64.007 32.5989C64.2514 32.8558 64.3737 33.1892 64.3737 33.5992C64.3737 34.0383 64.2324 34.4028 63.95 34.6928C63.6676 34.9827 63.3094 35.1835 62.8754 35.2953C62.4454 35.4114 61.948 35.4694 61.3833 35.4694C60.5151 35.4694 59.8007 35.2934 59.2402 34.9413C58.6754 34.585 58.393 34.0527 58.393 33.3446V33.1085H59.1959V33.3446C59.1959 33.8001 59.3876 34.1461 59.7712 34.382C60.1547 34.6181 60.6922 34.7362 61.3833 34.7362C62.8416 34.7321 63.5708 34.353 63.5708 33.5992ZM71.2329 33.5992C71.2329 33.3341 71.1149 33.1229 70.8789 32.9655C70.6429 32.8039 70.3289 32.7046 69.9369 32.6674C69.5238 32.626 69.1193 32.5741 68.7231 32.512C68.289 32.4498 67.8866 32.3753 67.5156 32.2883C67.1447 32.2096 66.8328 32.0398 66.5799 31.7788C66.3355 31.5262 66.2133 31.1969 66.2133 30.791C66.2133 30.2069 66.4704 29.7596 66.9846 29.449C67.4987 29.1384 68.1731 28.983 69.0077 28.983C69.8547 28.983 70.5355 29.1549 71.0496 29.4986C71.5596 29.8384 71.8145 30.3499 71.8145 31.0333H71.018C71.018 30.1593 70.3479 29.7223 69.0077 29.7223C67.68 29.7223 67.0162 30.0786 67.0162 30.791C67.0162 31.0436 67.1342 31.2467 67.3703 31.3999C67.6062 31.5532 67.9224 31.6504 68.3184 31.6919C68.7779 31.7457 69.1805 31.7975 69.526 31.8472C69.9853 31.9217 70.39 31.9984 70.7399 32.0771C71.1108 32.1682 71.4205 32.3422 71.6691 32.5989C71.9136 32.8558 72.0358 33.1892 72.0358 33.5992C72.0358 34.0383 71.8947 34.4028 71.6123 34.6928C71.3299 34.9827 70.9716 35.1835 70.5375 35.2953C70.1076 35.4114 69.6103 35.4694 69.0455 35.4694C68.1773 35.4694 67.4629 35.2934 66.9024 34.9413C66.3376 34.585 66.0552 34.0527 66.0552 33.3446V33.1085H66.8581V33.3446C66.8581 33.8001 67.0499 34.1461 67.4334 34.382C67.8169 34.6181 68.3543 34.7362 69.0455 34.7362C70.5038 34.7321 71.2329 34.353 71.2329 33.5992ZM73.9767 29.1073H74.7796V35.3451H73.9767V29.1073ZM73.9956 27.144C73.8988 27.057 73.8503 26.9411 73.8503 26.796C73.8503 26.6511 73.8988 26.5331 73.9956 26.4419C74.0925 26.3549 74.2211 26.3115 74.3813 26.3115C74.5414 26.3115 74.67 26.3549 74.7669 26.4419C74.8639 26.5331 74.9123 26.6511 74.9123 26.796C74.9123 26.9411 74.8639 27.057 74.7669 27.144C74.6742 27.2352 74.5457 27.2807 74.3813 27.2807C74.2168 27.2807 74.0884 27.2352 73.9956 27.144ZM76.6635 33.6428C76.6635 33.0381 76.9417 32.5762 77.498 32.2572C78.0501 31.9425 78.7477 31.785 79.5906 31.785C80.0331 31.785 80.4566 31.8389 80.8613 31.9466C81.2616 32.0585 81.5462 32.1641 81.7148 32.2635L81.9865 32.4313V31.2881C81.9865 30.7785 81.7906 30.3892 81.3986 30.12C81.0024 29.8549 80.5114 29.7223 79.9256 29.7223C79.3525 29.7223 78.8552 29.8384 78.4336 30.0702C78.0121 30.2981 77.8014 30.5839 77.8014 30.9277H76.9985C77.0196 30.4141 77.2789 29.9626 77.7762 29.5733C78.2777 29.1798 78.9858 28.983 79.9003 28.983C80.7263 28.983 81.4134 29.1777 81.9612 29.5671C82.5134 29.9605 82.7894 30.5342 82.7894 31.2881V33.9224C82.7894 34.2206 82.8359 34.4318 82.9285 34.5561C83.0255 34.6762 83.1856 34.7362 83.409 34.7362C83.5523 34.7362 83.6683 34.7196 83.7567 34.6866L83.7947 34.6554V35.3451C83.6766 35.4031 83.5038 35.432 83.2762 35.432C82.8759 35.432 82.5893 35.343 82.4165 35.165C82.2395 34.995 82.1342 34.8605 82.1003 34.7611L82.0877 34.6866H82.0498C82.0204 34.7362 81.8939 34.8252 81.6705 34.9536C81.5145 35.0489 81.3544 35.1298 81.19 35.1959C80.7811 35.3782 80.2648 35.4694 79.6412 35.4694C78.7687 35.4694 78.0543 35.3202 77.498 35.022C76.9417 34.7237 76.6635 34.2641 76.6635 33.6428ZM77.4917 33.6428C77.4917 34.3717 78.2419 34.7362 79.7423 34.7362C80.1848 34.7362 80.5957 34.672 80.9751 34.5436C81.3501 34.4152 81.5988 34.3096 81.7211 34.2268C81.8349 34.1439 81.9234 34.0757 81.9865 34.0218V33.1457C81.9571 33.1085 81.8749 33.0484 81.74 32.9655C81.5883 32.8786 81.3313 32.7833 80.9687 32.6797C80.5894 32.5721 80.1807 32.5182 79.7423 32.5182C78.8572 32.5182 78.2187 32.6694 77.8267 32.9718C77.6033 33.1457 77.4917 33.3693 77.4917 33.6428ZM95.1552 28.7905C95.1552 29.0638 95.111 29.3185 95.0224 29.5546C94.9339 29.7907 94.8223 29.973 94.6873 30.1013C94.3924 30.3913 94.1458 30.5611 93.9478 30.6109L93.8213 30.6605V30.6978C93.8761 30.7062 93.9434 30.7185 94.0236 30.7351C94.0869 30.7474 94.2322 30.8056 94.4598 30.909C94.6747 31.0125 94.8623 31.1306 95.0224 31.2632C95.191 31.4124 95.3406 31.6255 95.4714 31.9031C95.6062 32.193 95.6736 32.5141 95.6736 32.8662C95.6736 34.5187 94.563 35.3451 92.342 35.3451H88.4602V26.4357H92.2534C93.189 26.4357 93.9056 26.6387 94.4029 27.0446C94.9044 27.4505 95.1552 28.0324 95.1552 28.7905ZM92.342 31.1451H89.3137V34.5809H92.342C93.9731 34.5809 94.7885 34.0072 94.7885 32.8599C94.7885 31.7167 93.9731 31.1451 92.342 31.1451ZM89.3137 27.2V30.381H92.2409C92.9193 30.381 93.4273 30.2484 93.7643 29.9833C94.1057 29.7182 94.2743 29.3206 94.2701 28.7905C94.2701 28.2727 94.0931 27.8791 93.7392 27.61C93.3851 27.3365 92.8856 27.2 92.2409 27.2H89.3137ZM104.196 32.2261L104.158 32.7108H98.2782C98.2782 32.9014 98.3837 33.1705 98.5944 33.5185C98.7166 33.7215 98.8642 33.9078 99.0369 34.0776C99.2224 34.2599 99.4753 34.4111 99.7955 34.5312C100.116 34.6514 100.461 34.7114 100.832 34.7114C101.102 34.7114 101.361 34.6803 101.61 34.6181C101.859 34.5561 102.063 34.4753 102.223 34.3759C102.535 34.1854 102.739 34.0156 102.836 33.8664L102.919 33.767H103.886C103.861 33.8291 103.831 33.8892 103.797 33.9471C103.747 34.0383 103.639 34.177 103.475 34.3635C103.298 34.5623 103.108 34.7342 102.906 34.8791C102.691 35.0324 102.4 35.167 102.034 35.283C101.663 35.4072 101.262 35.4694 100.832 35.4694C99.8293 35.4694 99.0095 35.1691 98.373 34.5685C97.7324 33.9637 97.4122 33.183 97.4122 32.2261C97.4122 31.2694 97.7324 30.4886 98.373 29.8839C99.0095 29.2833 99.8208 28.983 100.807 28.983C101.793 28.983 102.605 29.2833 103.241 29.8839C103.877 30.4845 104.196 31.2653 104.196 32.2261ZM98.253 31.9715H103.355C103.355 31.4661 103.131 30.9691 102.685 30.4804C102.238 29.9916 101.612 29.7472 100.807 29.7472C100.002 29.7472 99.3762 29.9916 98.9295 30.4804C98.4785 30.9732 98.253 31.4703 98.253 31.9715ZM111.061 33.5992C111.061 33.3341 110.943 33.1229 110.707 32.9655C110.471 32.8039 110.157 32.7046 109.765 32.6674C109.352 32.626 108.948 32.5741 108.551 32.512C108.117 32.4498 107.715 32.3753 107.344 32.2883C106.973 32.2096 106.661 32.0398 106.408 31.7788C106.164 31.5262 106.042 31.1969 106.042 30.791C106.042 30.2069 106.299 29.7596 106.813 29.449C107.327 29.1384 108.001 28.983 108.836 28.983C109.683 28.983 110.364 29.1549 110.878 29.4986C111.388 29.8384 111.643 30.3499 111.643 31.0333H110.846C110.846 30.1593 110.176 29.7223 108.836 29.7223C107.508 29.7223 106.844 30.0786 106.844 30.791C106.844 31.0436 106.963 31.2467 107.199 31.3999C107.435 31.5532 107.751 31.6504 108.147 31.6919C108.606 31.7457 109.009 31.7975 109.354 31.8472C109.814 31.9217 110.218 31.9984 110.568 32.0771C110.939 32.1682 111.249 32.3422 111.497 32.5989C111.742 32.8558 111.864 33.1892 111.864 33.5992C111.864 34.0383 111.723 34.4028 111.441 34.6928C111.158 34.9827 110.8 35.1835 110.366 35.2953C109.936 35.4114 109.439 35.4694 108.874 35.4694C108.006 35.4694 107.291 35.2934 106.731 34.9413C106.166 34.585 105.884 34.0527 105.884 33.3446V33.1085H106.687V33.3446C106.687 33.8001 106.878 34.1461 107.262 34.382C107.645 34.6181 108.183 34.7362 108.874 34.7362C110.332 34.7321 111.061 34.353 111.061 33.5992ZM113.862 33.1209V29.8466H112.762V29.1073H113.862V27.7093H114.665V29.1073H117.099V29.8466H114.665V33.0276C114.665 34.1626 115.154 34.7321 116.131 34.7362C116.351 34.7362 116.564 34.7134 116.77 34.6679C116.977 34.6181 117.13 34.5644 117.231 34.5063L117.358 34.4318V35.1773C117.046 35.372 116.614 35.4694 116.062 35.4694C115.4 35.4694 114.869 35.2747 114.469 34.8853C114.064 34.496 113.862 33.9078 113.862 33.1209ZM128.82 35.3451H122.283V26.4357H128.82V27.2H123.136V30.3934H128.08V31.1576H123.136V34.5809H128.82V35.3451ZM135.679 33.5992C135.679 33.3341 135.561 33.1229 135.325 32.9655C135.089 32.8039 134.775 32.7046 134.383 32.6674C133.97 32.626 133.565 32.5741 133.169 32.512C132.735 32.4498 132.333 32.3753 131.962 32.2883C131.591 32.2096 131.279 32.0398 131.026 31.7788C130.782 31.5262 130.659 31.1969 130.659 30.791C130.659 30.2069 130.916 29.7596 131.431 29.449C131.945 29.1384 132.619 28.983 133.454 28.983C134.301 28.983 134.981 29.1549 135.496 29.4986C136.006 29.8384 136.261 30.3499 136.261 31.0333H135.464C135.464 30.1593 134.794 29.7223 133.454 29.7223C132.126 29.7223 131.462 30.0786 131.462 30.791C131.462 31.0436 131.58 31.2467 131.816 31.3999C132.052 31.5532 132.368 31.6504 132.765 31.6919C133.224 31.7457 133.626 31.7975 133.972 31.8472C134.431 31.9217 134.836 31.9984 135.186 32.0771C135.557 32.1682 135.866 32.3422 136.115 32.5989C136.36 32.8558 136.482 33.1892 136.482 33.5992C136.482 34.0383 136.341 34.4028 136.058 34.6928C135.776 34.9827 135.418 35.1835 134.984 35.2953C134.554 35.4114 134.056 35.4694 133.492 35.4694C132.623 35.4694 131.909 35.2934 131.348 34.9413C130.784 34.585 130.501 34.0527 130.501 33.3446V33.1085H131.304V33.3446C131.304 33.8001 131.496 34.1461 131.88 34.382C132.263 34.6181 132.8 34.7362 133.492 34.7362C134.95 34.7321 135.679 34.353 135.679 33.5992ZM138.48 33.1209V29.8466H137.38V29.1073H138.48V27.7093H139.283V29.1073H141.716V29.8466H139.283V33.0276C139.283 34.1626 139.771 34.7321 140.749 34.7362C140.968 34.7362 141.181 34.7134 141.388 34.6679C141.594 34.6181 141.748 34.5644 141.849 34.5063L141.976 34.4318V35.1773C141.664 35.372 141.232 35.4694 140.68 35.4694C140.018 35.4694 139.487 35.2747 139.086 34.8853C138.682 34.496 138.48 33.9078 138.48 33.1209ZM143.006 33.6428C143.006 33.0381 143.284 32.5762 143.841 32.2572C144.393 31.9425 145.09 31.785 145.933 31.785C146.376 31.785 146.799 31.8389 147.204 31.9466C147.604 32.0585 147.889 32.1641 148.057 32.2635L148.329 32.4313V31.2881C148.329 30.7785 148.134 30.3892 147.741 30.12C147.345 29.8549 146.855 29.7223 146.268 29.7223C145.695 29.7223 145.197 29.8384 144.776 30.0702C144.354 30.2981 144.144 30.5839 144.144 30.9277H143.341C143.362 30.4141 143.621 29.9626 144.119 29.5733C144.621 29.1798 145.328 28.983 146.243 28.983C147.069 28.983 147.755 29.1777 148.303 29.5671C148.856 29.9605 149.132 30.5342 149.132 31.2881V33.9224C149.132 34.2206 149.178 34.4318 149.272 34.5561C149.368 34.6762 149.528 34.7362 149.752 34.7362C149.894 34.7362 150.011 34.7196 150.099 34.6866L150.138 34.6554V35.3451C150.02 35.4031 149.847 35.432 149.618 35.432C149.218 35.432 148.932 35.343 148.759 35.165C148.582 34.995 148.476 34.8605 148.443 34.7611L148.43 34.6866H148.393C148.362 34.7362 148.236 34.8252 148.013 34.9536C147.857 35.0489 147.696 35.1298 147.532 35.1959C147.124 35.3782 146.607 35.4694 145.984 35.4694C145.111 35.4694 144.398 35.3202 143.841 35.022C143.284 34.7237 143.006 34.2641 143.006 33.6428ZM143.834 33.6428C143.834 34.3717 144.585 34.7362 146.085 34.7362C146.527 34.7362 146.938 34.672 147.318 34.5436C147.693 34.4152 147.941 34.3096 148.063 34.2268C148.177 34.1439 148.266 34.0757 148.329 34.0218V33.1457C148.299 33.1085 148.217 33.0484 148.083 32.9655C147.931 32.8786 147.673 32.7833 147.311 32.6797C146.932 32.5721 146.524 32.5182 146.085 32.5182C145.2 32.5182 144.562 32.6694 144.169 32.9718C143.946 33.1457 143.834 33.3693 143.834 33.6428ZM151.693 33.1209V29.8466H150.592V29.1073H151.693V27.7093H152.495V29.1073H154.93V29.8466H152.495V33.0276C152.495 34.1626 152.985 34.7321 153.961 34.7362C154.182 34.7362 154.394 34.7134 154.6 34.6679C154.807 34.6181 154.961 34.5644 155.062 34.5063L155.189 34.4318V35.1773C154.876 35.372 154.445 35.4694 153.892 35.4694C153.231 35.4694 152.7 35.2747 152.3 34.8853C151.894 34.496 151.693 33.9078 151.693 33.1209ZM162.94 32.2261L162.901 32.7108H157.021C157.021 32.9014 157.128 33.1705 157.338 33.5185C157.46 33.7215 157.608 33.9078 157.781 34.0776C157.966 34.2599 158.218 34.4111 158.539 34.5312C158.86 34.6514 159.205 34.7114 159.576 34.7114C159.845 34.7114 160.104 34.6803 160.353 34.6181C160.602 34.5561 160.806 34.4753 160.967 34.3759C161.278 34.1854 161.482 34.0156 161.58 33.8664L161.662 33.767H162.629C162.604 33.8291 162.574 33.8892 162.541 33.9471C162.491 34.0383 162.383 34.177 162.219 34.3635C162.042 34.5623 161.852 34.7342 161.649 34.8791C161.435 35.0324 161.144 35.167 160.777 35.283C160.406 35.4072 160.006 35.4694 159.576 35.4694C158.574 35.4694 157.754 35.1691 157.116 34.5685C156.476 33.9637 156.155 33.183 156.155 32.2261C156.155 31.2694 156.476 30.4886 157.116 29.8839C157.754 29.2833 158.565 28.983 159.55 28.983C160.537 28.983 161.349 29.2833 161.984 29.8839C162.622 30.4845 162.94 31.2653 162.94 32.2261ZM156.997 31.9715H162.098C162.098 31.4661 161.875 30.9691 161.428 30.4804C160.982 29.9916 160.356 29.7472 159.55 29.7472C158.746 29.7472 158.12 29.9916 157.673 30.4804C157.223 30.9732 156.997 31.4703 156.997 31.9715Z" fill="white"/>
<path d="M16.5437 1.22449C17.879 0.466838 19.5242 0.466838 20.8595 1.22449L32.7398 7.96537C34.0751 8.72303 34.8977 10.1232 34.8977 11.6385V25.1202C34.8977 26.6355 34.0751 28.0358 32.7398 28.7934L20.8595 35.5344C19.5242 36.292 17.879 36.292 16.5437 35.5344L4.66327 28.7934C3.32796 28.0358 2.50537 26.6355 2.50537 25.1202V11.6385C2.50537 10.1232 3.32796 8.72303 4.66327 7.96537L16.5437 1.22449Z" fill="url(#paint0_linear_300_3555)"/>
<mask id="mask0_300_3555" style="mask-type:alpha" maskUnits="userSpaceOnUse" x="2" y="0" width="33" height="37">
<path d="M16.5437 1.22449C17.879 0.466838 19.5242 0.466838 20.8595 1.22449L32.7398 7.96537C34.0751 8.72303 34.8977 10.1232 34.8977 11.6385V25.1202C34.8977 26.6355 34.0751 28.0358 32.7398 28.7934L20.8595 35.5344C19.5242 36.292 17.879 36.292 16.5437 35.5344L4.66327 28.7934C3.32796 28.0358 2.50537 26.6355 2.50537 25.1202V11.6385C2.50537 10.1232 3.32796 8.72303 4.66327 7.96537L16.5437 1.22449Z" fill="url(#paint1_linear_300_3555)"/>
</mask>
<g mask="url(#mask0_300_3555)">
<path d="M1.62646 25.5711L8.18565 21.6497C8.69394 21.3458 9.34013 21.3808 9.8114 21.7378L11.8945 23.3151C12.4798 23.7583 13.3116 23.6937 13.8188 23.1657L19.9642 16.7667C20.4092 16.3033 21.1147 16.1897 21.6869 16.4893L39.0299 25.5711" stroke="white" stroke-width="0.7"/>
<path d="M30.8166 26.4038H23.2293C23.0102 26.4038 22.7993 26.4856 22.6393 26.6328L18.7552 30.2063C18.6437 30.3088 18.4967 30.3659 18.3439 30.3659C17.9424 30.3659 17.6534 29.987 17.7662 29.6083L18.5817 26.8699L18.8257 25.3245C18.8787 24.9894 18.7234 24.6556 18.431 24.4755L17.2502 23.7487C16.7589 23.4463 16.7047 22.7633 17.1421 22.3896L20.4443 19.5684C20.7182 19.3344 21.1119 19.2938 21.4293 19.4669L31.2353 24.8137C32.0143 25.2385 31.7075 26.4038 30.8166 26.4038Z" fill="white"/>
<path d="M9.0247 24.3291L5.23581 27.0255C5.01163 27.1851 4.87891 27.4406 4.87891 27.7126V27.7539C4.87891 28.2224 5.26536 28.6022 5.74206 28.6022H8.66214C9.13885 28.6022 9.5253 28.9819 9.5253 29.4504V29.5175C9.5253 29.986 9.91175 30.3657 10.3885 30.3657H11.1987C11.5835 30.3657 11.9218 30.1154 12.0282 29.752L12.8407 26.9766C12.9421 26.6299 12.8095 26.2581 12.5099 26.0497L10.0297 24.3239C9.72811 24.1141 9.32403 24.1162 9.0247 24.3291Z" fill="white"/>
</g>
<defs>
<linearGradient id="paint0_linear_300_3555" x1="18.7016" y1="0.000106467" x2="18.7016" y2="36.7587" gradientUnits="userSpaceOnUse">
<stop stop-color="#2AAEED"/>
<stop offset="1" stop-color="#2C4AA8"/>
</linearGradient>
<linearGradient id="paint1_linear_300_3555" x1="18.7016" y1="0.000106467" x2="18.7016" y2="36.7587" gradientUnits="userSpaceOnUse">
<stop stop-color="#2AAEED"/>
<stop offset="1" stop-color="#2C4AA8"/>
</linearGradient>
</defs>
</svg>
