<svg width="84" height="20" viewBox="0 0 84 20" fill="none" xmlns="http://www.w3.org/2000/svg">
<path d="M25.7932 7.1929H23.4035V10.3448H21.7585V1.65274H25.5276C27.9843 1.65274 29.2126 2.57206 29.2126 4.4107C29.2126 4.77842 29.1543 5.1219 29.0377 5.44114C28.9212 5.75633 28.7744 6.00283 28.5973 6.18063C28.2433 6.53219 27.9217 6.75243 27.6324 6.84132L27.4641 6.89588L29.7825 10.3448H27.9238L25.7932 7.1929ZM23.4035 5.87756H25.5276C26.8358 5.87756 27.4899 5.39265 27.4899 4.42282C27.4899 3.45299 26.8358 2.96808 25.5276 2.96808H23.4035V5.87756ZM39.2442 7.90207C39.2442 8.74662 38.957 9.3649 38.3828 9.7569C37.8086 10.1488 36.9062 10.3448 35.6758 10.3448H31.4468V1.65274H35.6499C37.7266 1.65274 38.7671 2.44073 38.7714 4.0167C38.7714 4.2632 38.726 4.49555 38.6354 4.71377C38.5447 4.93198 38.4303 5.10372 38.2922 5.22899C38.0245 5.47952 37.7805 5.64521 37.5603 5.72602L37.4178 5.76239V5.82907C37.4654 5.83311 37.5323 5.84523 37.6186 5.86543C37.692 5.8816 37.8367 5.93615 38.0526 6.0291C38.2511 6.11799 38.4368 6.23114 38.6095 6.36854C38.7606 6.49381 38.9074 6.69787 39.0499 6.98076C39.1794 7.25145 39.2442 7.55862 39.2442 7.90207ZM33.0918 9.078H35.7211C36.9214 9.078 37.5215 8.65573 37.5215 7.81117C37.5215 6.96662 36.9214 6.54432 35.7211 6.54432H33.0918V9.078ZM33.0918 5.33203H35.4685C36.5177 5.33203 37.0423 4.92996 37.0423 4.12581C37.0423 3.32166 36.5177 2.91959 35.4685 2.91959H33.0918V5.33203ZM48.4403 10.3448H41.174V1.65274H48.4403V2.96808H42.819V5.24111H47.6178V6.53219H42.819V9.02952H48.4403V10.3448Z" fill="black"/>
<path d="M24.9739 17.2414H24.4784L23.2706 15.529H21.7325V17.2414H21.2954V12.8953H23.1444C23.6451 12.8953 24.0391 13.0126 24.3263 13.2469C24.609 13.4813 24.7504 13.8035 24.7504 14.2137C24.7504 14.3955 24.7191 14.5643 24.6565 14.7199C24.5961 14.8734 24.5173 14.9957 24.4201 15.0866C24.3316 15.1734 24.2356 15.2461 24.132 15.3048C23.9614 15.4037 23.8287 15.4532 23.7337 15.4532L24.9739 17.2414ZM21.7325 13.2681V15.1563H23.1444C23.5048 15.1563 23.7876 15.0734 23.9927 14.9077C24.1978 14.74 24.3003 14.5087 24.3003 14.2137C24.3003 13.9208 24.1978 13.6894 23.9927 13.5197C23.7833 13.352 23.5006 13.2681 23.1444 13.2681H21.7325ZM25.7996 14.1986H26.2108V15.8261C26.2108 16.2099 26.3165 16.4918 26.5281 16.6716C26.7397 16.8534 27.016 16.9443 27.357 16.9443C27.7283 16.9443 28.0133 16.8393 28.2119 16.6292C28.4084 16.421 28.5066 16.1493 28.5066 15.8139V14.1986H28.9178V17.2414H28.5066V16.7626H28.4774C28.4537 16.813 28.4008 16.8747 28.3188 16.9474C28.2562 17.006 28.1796 17.0616 28.0889 17.1141C27.9982 17.1666 27.8762 17.2111 27.723 17.2474C27.5718 17.2838 27.4153 17.302 27.2534 17.302C26.8347 17.302 26.4871 17.1848 26.2108 16.9504C25.9366 16.7181 25.7996 16.3686 25.7996 15.9018V14.1986ZM32.5607 16.3897C32.5607 16.2604 32.5002 16.1574 32.3794 16.0806C32.2584 16.0018 32.0976 15.9533 31.8969 15.9352C31.6853 15.915 31.4781 15.8897 31.2751 15.8594C31.0528 15.829 30.8467 15.7927 30.6567 15.7503C30.4667 15.7119 30.307 15.629 30.1775 15.5017C30.0523 15.3785 29.9896 15.2179 29.9896 15.0199C29.9896 14.735 30.1213 14.5168 30.3847 14.3652C30.6481 14.2137 30.9934 14.1379 31.4209 14.1379C31.8547 14.1379 32.2034 14.2218 32.4667 14.3894C32.728 14.5552 32.8586 14.8047 32.8586 15.1381H32.4505C32.4505 14.7117 32.1073 14.4986 31.4209 14.4986C30.7408 14.4986 30.4009 14.6723 30.4009 15.0199C30.4009 15.1431 30.4613 15.2421 30.5822 15.3169C30.7031 15.3917 30.865 15.4391 31.0679 15.4593C31.3032 15.4856 31.5094 15.5108 31.6864 15.5351C31.9217 15.5714 32.1289 15.6088 32.3081 15.6472C32.4981 15.6917 32.6567 15.7766 32.7841 15.9018C32.9093 16.0271 32.9719 16.1897 32.9719 16.3897C32.9719 16.6039 32.8996 16.7817 32.7549 16.9232C32.6103 17.0646 32.4268 17.1626 32.2045 17.2171C31.9843 17.2737 31.7295 17.302 31.4403 17.302C30.9956 17.302 30.6297 17.2161 30.3426 17.0444C30.0533 16.8706 29.9087 16.611 29.9087 16.2655V16.1503H30.3199V16.2655C30.3199 16.4877 30.4181 16.6565 30.6145 16.7716C30.811 16.8868 31.0863 16.9443 31.4403 16.9443C32.1872 16.9423 32.5607 16.7574 32.5607 16.3897ZM36.4852 16.3897C36.4852 16.2604 36.4248 16.1574 36.3039 16.0806C36.183 16.0018 36.0222 15.9533 35.8214 15.9352C35.6098 15.915 35.4026 15.8897 35.1997 15.8594C34.9773 15.829 34.7712 15.7927 34.5812 15.7503C34.3912 15.7119 34.2315 15.629 34.1019 15.5017C33.9768 15.3785 33.9142 15.2179 33.9142 15.0199C33.9142 14.735 34.0459 14.5168 34.3092 14.3652C34.5726 14.2137 34.918 14.1379 35.3454 14.1379C35.7793 14.1379 36.128 14.2218 36.3913 14.3894C36.6525 14.5552 36.7831 14.8047 36.7831 15.1381H36.3751C36.3751 14.7117 36.0319 14.4986 35.3454 14.4986C34.6654 14.4986 34.3254 14.6723 34.3254 15.0199C34.3254 15.1431 34.3859 15.2421 34.5068 15.3169C34.6276 15.3917 34.7896 15.4391 34.9924 15.4593C35.2278 15.4856 35.4339 15.5108 35.6109 15.5351C35.8462 15.5714 36.0535 15.6088 36.2327 15.6472C36.4226 15.6917 36.5813 15.7766 36.7086 15.9018C36.8339 16.0271 36.8964 16.1897 36.8964 16.3897C36.8964 16.6039 36.8241 16.7817 36.6795 16.9232C36.5349 17.0646 36.3514 17.1626 36.129 17.2171C35.9088 17.2737 35.6541 17.302 35.3648 17.302C34.9201 17.302 34.5542 17.2161 34.2671 17.0444C33.9779 16.8706 33.8332 16.611 33.8332 16.2655V16.1503H34.2445V16.2655C34.2445 16.4877 34.3427 16.6565 34.5391 16.7716C34.7356 16.8868 35.0108 16.9443 35.3648 16.9443C36.1118 16.9423 36.4852 16.7574 36.4852 16.3897ZM37.8906 14.1986H38.3018V17.2414H37.8906V14.1986ZM37.9002 13.2408C37.8506 13.1984 37.8258 13.1419 37.8258 13.0711C37.8258 13.0004 37.8506 12.9428 37.9002 12.8983C37.9499 12.8559 38.0158 12.8348 38.0978 12.8348C38.1798 12.8348 38.2456 12.8559 38.2953 12.8983C38.345 12.9428 38.3697 13.0004 38.3697 13.0711C38.3697 13.1419 38.345 13.1984 38.2953 13.2408C38.2478 13.2853 38.182 13.3075 38.0978 13.3075C38.0135 13.3075 37.9477 13.2853 37.9002 13.2408ZM39.2667 16.411C39.2667 16.116 39.4092 15.8907 39.6941 15.7351C39.9769 15.5816 40.3342 15.5048 40.7659 15.5048C40.9926 15.5048 41.2095 15.531 41.4168 15.5836C41.6219 15.6381 41.7676 15.6897 41.854 15.7381L41.9932 15.82V15.2623C41.9932 15.0138 41.8928 14.8239 41.692 14.6926C41.4891 14.5632 41.2376 14.4986 40.9376 14.4986C40.644 14.4986 40.3893 14.5552 40.1734 14.6683C39.9575 14.7794 39.8495 14.9188 39.8495 15.0866H39.4383C39.4491 14.836 39.5819 14.6158 39.8366 14.4259C40.0935 14.2339 40.4562 14.1379 40.9246 14.1379C41.3477 14.1379 41.6996 14.2329 41.9802 14.4228C42.263 14.6148 42.4044 14.8946 42.4044 15.2623V16.5474C42.4044 16.6928 42.4282 16.7959 42.4756 16.8565C42.5253 16.9151 42.6073 16.9443 42.7217 16.9443C42.7951 16.9443 42.8545 16.9363 42.8998 16.9201L42.9193 16.905V17.2414C42.8588 17.2697 42.7703 17.2838 42.6537 17.2838C42.4487 17.2838 42.3019 17.2403 42.2134 17.1535C42.1227 17.0706 42.0688 17.005 42.0514 16.9565L42.045 16.9201H42.0256C42.0105 16.9443 41.9457 16.9878 41.8313 17.0504C41.7514 17.0969 41.6694 17.1363 41.5852 17.1686C41.3758 17.2575 41.1113 17.302 40.7919 17.302C40.345 17.302 39.9791 17.2292 39.6941 17.0838C39.4092 16.9383 39.2667 16.7141 39.2667 16.411ZM39.6909 16.411C39.6909 16.7666 40.0752 16.9443 40.8437 16.9443C41.0703 16.9443 41.2808 16.913 41.4751 16.8504C41.6672 16.7878 41.7946 16.7363 41.8572 16.6959C41.9155 16.6554 41.9608 16.6221 41.9932 16.5959V16.1685C41.978 16.1503 41.936 16.121 41.8669 16.0806C41.7892 16.0382 41.6575 15.9917 41.4718 15.9412C41.2775 15.8887 41.0682 15.8624 40.8437 15.8624C40.3903 15.8624 40.0633 15.9361 39.8625 16.0837C39.7481 16.1685 39.6909 16.2776 39.6909 16.411ZM48.7381 14.044C48.7381 14.1773 48.7154 14.3016 48.67 14.4168C48.6247 14.5319 48.5676 14.6208 48.4984 14.6834C48.3474 14.8249 48.2211 14.9077 48.1196 14.932L48.0549 14.9562V14.9744C48.0829 14.9785 48.1174 14.9845 48.1585 14.9926C48.1909 14.9986 48.2653 15.027 48.3819 15.0774C48.492 15.1279 48.588 15.1855 48.67 15.2502C48.7564 15.323 48.833 15.427 48.9 15.5623C48.9691 15.7038 49.0036 15.8604 49.0036 16.0321C49.0036 16.8383 48.4348 17.2414 47.2972 17.2414H45.3089V12.8953H47.2518C47.731 12.8953 48.098 12.9943 48.3528 13.1923C48.6096 13.3903 48.7381 13.6742 48.7381 14.044ZM47.2972 15.1926H45.7461V16.8686H47.2972C48.1326 16.8686 48.5502 16.5888 48.5502 16.0291C48.5502 15.4714 48.1326 15.1926 47.2972 15.1926ZM45.7461 13.2681V14.8199H47.2454C47.5929 14.8199 47.853 14.7552 48.0257 14.6259C48.2005 14.4966 48.2869 14.3026 48.2847 14.044C48.2847 13.7914 48.194 13.5994 48.0128 13.4681C47.8314 13.3348 47.5756 13.2681 47.2454 13.2681H45.7461ZM53.3685 15.7199L53.3491 15.9563H50.3377C50.3377 16.0493 50.3917 16.1806 50.4996 16.3503C50.5622 16.4494 50.6378 16.5403 50.7263 16.6231C50.8213 16.712 50.9508 16.7858 51.1148 16.8443C51.2789 16.903 51.4559 16.9323 51.6459 16.9323C51.784 16.9323 51.9168 16.9171 52.0441 16.8868C52.1715 16.8565 52.2762 16.8171 52.3582 16.7686C52.518 16.6757 52.6227 16.5928 52.6724 16.5201L52.7144 16.4716H53.2099C53.1969 16.5019 53.1818 16.5312 53.1646 16.5594C53.1386 16.6039 53.0836 16.6716 52.9994 16.7626C52.9087 16.8595 52.8116 16.9434 52.7079 17.0141C52.5979 17.0888 52.4489 17.1545 52.2611 17.2111C52.0712 17.2717 51.866 17.302 51.6459 17.302C51.1321 17.302 50.7122 17.1555 50.3862 16.8626C50.0581 16.5675 49.8941 16.1867 49.8941 15.7199C49.8941 15.2532 50.0581 14.8723 50.3862 14.5774C50.7122 14.2844 51.1278 14.1379 51.6329 14.1379C52.1381 14.1379 52.5536 14.2844 52.8795 14.5774C53.2055 14.8703 53.3685 15.2512 53.3685 15.7199ZM50.3248 15.5957H52.9378C52.9378 15.3492 52.8235 15.1068 52.5946 14.8683C52.3658 14.6299 52.0452 14.5107 51.6329 14.5107C51.2206 14.5107 50.9 14.6299 50.6712 14.8683C50.4402 15.1088 50.3248 15.3512 50.3248 15.5957ZM56.8851 16.3897C56.8851 16.2604 56.8246 16.1574 56.7038 16.0806C56.5828 16.0018 56.4221 15.9533 56.2213 15.9352C56.0097 15.915 55.8025 15.8897 55.5995 15.8594C55.3772 15.829 55.1711 15.7927 54.9811 15.7503C54.7911 15.7119 54.6314 15.629 54.5019 15.5017C54.3767 15.3785 54.314 15.2179 54.314 15.0199C54.314 14.735 54.4457 14.5168 54.7091 14.3652C54.9725 14.2137 55.3178 14.1379 55.7453 14.1379C56.1792 14.1379 56.5278 14.2218 56.7911 14.3894C57.0524 14.5552 57.183 14.8047 57.183 15.1381H56.775C56.775 14.7117 56.4317 14.4986 55.7453 14.4986C55.0652 14.4986 54.7253 14.6723 54.7253 15.0199C54.7253 15.1431 54.7858 15.2421 54.9066 15.3169C55.0275 15.3917 55.1894 15.4391 55.3923 15.4593C55.6276 15.4856 55.8338 15.5108 56.0108 15.5351C56.2461 15.5714 56.4533 15.6088 56.6325 15.6472C56.8225 15.6917 56.9811 15.7766 57.1085 15.9018C57.2337 16.0271 57.2963 16.1897 57.2963 16.3897C57.2963 16.6039 57.224 16.7817 57.0793 16.9232C56.9348 17.0646 56.7512 17.1626 56.5289 17.2171C56.3087 17.2737 56.0539 17.302 55.7647 17.302C55.32 17.302 54.9541 17.2161 54.667 17.0444C54.3777 16.8706 54.2331 16.611 54.2331 16.2655V16.1503H54.6444V16.2655C54.6444 16.4877 54.7426 16.6565 54.939 16.7716C55.1355 16.8868 55.4107 16.9443 55.7647 16.9443C56.5116 16.9423 56.8851 16.7574 56.8851 16.3897ZM58.3195 16.1564V14.5592H57.7561V14.1986H58.3195V13.5166H58.7308V14.1986H59.9774V14.5592H58.7308V16.1109C58.7308 16.6646 58.9812 16.9423 59.482 16.9443C59.5942 16.9443 59.7033 16.9332 59.809 16.911C59.9148 16.8868 59.9936 16.8606 60.0454 16.8322L60.1102 16.7959V17.1595C59.9504 17.2545 59.7292 17.302 59.4464 17.302C59.1075 17.302 58.8354 17.207 58.6304 17.0171C58.4232 16.8272 58.3195 16.5403 58.3195 16.1564ZM65.9808 17.2414H62.6327V12.8953H65.9808V13.2681H63.0698V14.8259H65.6019V15.1987H63.0698V16.8686H65.9808V17.2414ZM69.4942 16.3897C69.4942 16.2604 69.4337 16.1574 69.3128 16.0806C69.1919 16.0018 69.0311 15.9533 68.8303 15.9352C68.6188 15.915 68.4115 15.8897 68.2086 15.8594C67.9863 15.829 67.7801 15.7927 67.5902 15.7503C67.4002 15.7119 67.2405 15.629 67.1109 15.5017C66.9857 15.3785 66.9231 15.2179 66.9231 15.0199C66.9231 14.735 67.0548 14.5168 67.3182 14.3652C67.5815 14.2137 67.9269 14.1379 68.3543 14.1379C68.7883 14.1379 69.1369 14.2218 69.4002 14.3894C69.6614 14.5552 69.7921 14.8047 69.7921 15.1381H69.3841C69.3841 14.7117 69.0408 14.4986 68.3543 14.4986C67.6744 14.4986 67.3343 14.6723 67.3343 15.0199C67.3343 15.1431 67.3948 15.2421 67.5157 15.3169C67.6366 15.3917 67.7985 15.4391 68.0014 15.4593C68.2367 15.4856 68.4428 15.5108 68.6199 15.5351C68.8552 15.5714 69.0624 15.6088 69.2416 15.6472C69.4315 15.6917 69.5902 15.7766 69.7176 15.9018C69.8428 16.0271 69.9054 16.1897 69.9054 16.3897C69.9054 16.6039 69.833 16.7817 69.6884 16.9232C69.5438 17.0646 69.3603 17.1626 69.138 17.2171C68.9177 17.2737 68.663 17.302 68.3738 17.302C67.9291 17.302 67.5632 17.2161 67.276 17.0444C66.9868 16.8706 66.8422 16.611 66.8422 16.2655V16.1503H67.2534V16.2655C67.2534 16.4877 67.3516 16.6565 67.5481 16.7716C67.7445 16.8868 68.0197 16.9443 68.3738 16.9443C69.1207 16.9423 69.4942 16.7574 69.4942 16.3897ZM70.9286 16.1564V14.5592H70.3652V14.1986H70.9286V13.5166H71.3399V14.1986H72.5865V14.5592H71.3399V16.1109C71.3399 16.6646 71.5903 16.9423 72.0911 16.9443C72.2033 16.9443 72.3124 16.9332 72.4181 16.911C72.5239 16.8868 72.6027 16.8606 72.6545 16.8322L72.7192 16.7959V17.1595C72.5595 17.2545 72.3382 17.302 72.0555 17.302C71.7165 17.302 71.4445 17.207 71.2394 17.0171C71.0322 16.8272 70.9286 16.5403 70.9286 16.1564ZM73.247 16.411C73.247 16.116 73.3895 15.8907 73.6745 15.7351C73.9576 15.5816 74.3142 15.5048 74.746 15.5048C74.9729 15.5048 75.1896 15.531 75.3974 15.5836C75.6022 15.6381 75.7481 15.6897 75.8343 15.7381L75.9736 15.82V15.2623C75.9736 15.0138 75.8734 14.8239 75.6722 14.6926C75.4696 14.5632 75.2183 14.4986 74.9177 14.4986C74.6244 14.4986 74.3695 14.5552 74.1536 14.6683C73.9377 14.7794 73.8301 14.9188 73.8301 15.0866H73.4187C73.4295 14.836 73.5623 14.6158 73.8168 14.4259C74.074 14.2339 74.4365 14.1379 74.9052 14.1379C75.3281 14.1379 75.6796 14.2329 75.9603 14.4228C76.2433 14.6148 76.3847 14.8946 76.3847 15.2623V16.5474C76.3847 16.6928 76.4083 16.7959 76.4562 16.8565C76.5056 16.9151 76.5874 16.9443 76.7023 16.9443C76.7753 16.9443 76.8349 16.9363 76.8799 16.9201L76.8998 16.905V17.2414C76.8394 17.2697 76.7509 17.2838 76.6338 17.2838C76.4289 17.2838 76.2823 17.2403 76.1939 17.1535C76.1033 17.0706 76.0487 17.005 76.0318 16.9565L76.0252 16.9201H76.006C75.9905 16.9443 75.9257 16.9878 75.8115 17.0504C75.7319 17.0969 75.6494 17.1363 75.5654 17.1686C75.3561 17.2575 75.0916 17.302 74.7725 17.302C74.3253 17.302 73.9598 17.2292 73.6745 17.0838C73.3895 16.9383 73.247 16.7141 73.247 16.411ZM73.6712 16.411C73.6712 16.7666 74.0556 16.9443 74.8241 16.9443C75.0503 16.9443 75.2611 16.913 75.4556 16.8504C75.6479 16.7878 75.7746 16.7363 75.8373 16.6959C75.8955 16.6554 75.9412 16.6221 75.9736 16.5959V16.1685C75.9581 16.1503 75.9161 16.121 75.8476 16.0806C75.7695 16.0382 75.6376 15.9917 75.4519 15.9412C75.2581 15.8887 75.0488 15.8624 74.8241 15.8624C74.3709 15.8624 74.0438 15.9361 73.8426 16.0837C73.7284 16.1685 73.6712 16.2776 73.6712 16.411ZM77.6963 16.1564V14.5592H77.1326V14.1986H77.6963V13.5166H78.1075V14.1986H79.3542V14.5592H78.1075V16.1109C78.1075 16.6646 78.358 16.9423 78.8583 16.9443C78.9711 16.9443 79.0801 16.9332 79.1855 16.911C79.2916 16.8868 79.3704 16.8606 79.422 16.8322L79.4868 16.7959V17.1595C79.3269 17.2545 79.1059 17.302 78.8229 17.302C78.484 17.302 78.2121 17.207 78.0073 17.0171C77.7995 16.8272 77.6963 16.5403 77.6963 16.1564ZM83.4569 15.7199L83.437 15.9563H80.4256C80.4256 16.0493 80.4801 16.1806 80.5877 16.3503C80.6503 16.4494 80.7262 16.5403 80.8146 16.6231C80.9097 16.712 81.0386 16.7858 81.2029 16.8443C81.3673 16.903 81.5441 16.9323 81.7342 16.9323C81.872 16.9323 82.0046 16.9171 82.1321 16.8868C82.2596 16.8565 82.3642 16.8171 82.4467 16.7686C82.6059 16.6757 82.7105 16.5928 82.7606 16.5201L82.8026 16.4716H83.2978C83.2853 16.5019 83.2698 16.5312 83.2528 16.5594C83.2271 16.6039 83.1718 16.6716 83.0878 16.7626C82.9972 16.8595 82.8999 16.9434 82.796 17.0141C82.6862 17.0888 82.5374 17.1545 82.3495 17.2111C82.1594 17.2717 81.9545 17.302 81.7342 17.302C81.2206 17.302 80.8006 17.1555 80.4742 16.8626C80.1463 16.5675 79.982 16.1867 79.982 15.7199C79.982 15.2532 80.1463 14.8723 80.4742 14.5774C80.8006 14.2844 81.2162 14.1379 81.7209 14.1379C82.2264 14.1379 82.642 14.2844 82.9677 14.5774C83.2941 14.8703 83.4569 15.2512 83.4569 15.7199ZM80.4131 15.5957H83.0259C83.0259 15.3492 82.9117 15.1068 82.6825 14.8683C82.4541 14.6299 82.1336 14.5107 81.7209 14.5107C81.309 14.5107 80.9885 14.6299 80.7594 14.8683C80.5287 15.1088 80.4131 15.3512 80.4131 15.5957Z" fill="black"/>
<path d="M8.4738 0.597259C9.15773 0.227674 10.0004 0.227674 10.6843 0.597259L16.7694 3.8855C17.4533 4.25508 17.8746 4.9381 17.8746 5.67728V12.2537C17.8746 12.9929 17.4533 13.6759 16.7694 14.0455L10.6843 17.3338C10.0004 17.7034 9.15773 17.7034 8.4738 17.3338L2.38871 14.0455C1.70477 13.6759 1.28345 12.9929 1.28345 12.2537V5.67728C1.28345 4.9381 1.70477 4.25508 2.38871 3.8855L8.4738 0.597259Z" fill="url(#paint0_linear_300_3697)"/>
<mask id="mask0_300_3697" style="mask-type:alpha" maskUnits="userSpaceOnUse" x="1" y="0" width="17" height="18">
<path d="M8.4738 0.597259C9.15773 0.227674 10.0004 0.227674 10.6843 0.597259L16.7694 3.8855C17.4533 4.25508 17.8746 4.9381 17.8746 5.67728V12.2537C17.8746 12.9929 17.4533 13.6759 16.7694 14.0455L10.6843 17.3338C10.0004 17.7034 9.15773 17.7034 8.4738 17.3338L2.38871 14.0455C1.70477 13.6759 1.28345 12.9929 1.28345 12.2537V5.67728C1.28345 4.9381 1.70477 4.25508 2.38871 3.8855L8.4738 0.597259Z" fill="url(#paint1_linear_300_3697)"/>
</mask>
<g mask="url(#mask0_300_3697)">
<path d="M0.833008 12.4737L4.19259 10.5608C4.45294 10.4126 4.78391 10.4297 5.02529 10.6038L6.09224 11.3732C6.39203 11.5894 6.81808 11.5579 7.07786 11.3003L10.2255 8.1789C10.4534 7.95283 10.8148 7.89745 11.1079 8.04359L19.9909 12.4737" stroke="black" stroke-width="0.7"/>
<path d="M15.784 12.8798H11.8978C11.7856 12.8798 11.6776 12.9197 11.5956 12.9915L9.60623 14.7347C9.54913 14.7847 9.47382 14.8126 9.39557 14.8126C9.18992 14.8126 9.04188 14.6277 9.09965 14.443L9.51737 13.1072L9.64234 12.3533C9.66945 12.1899 9.58995 12.027 9.44015 11.9392L8.83535 11.5846C8.58372 11.4371 8.55594 11.1039 8.78001 10.9217L10.4714 9.54545C10.6117 9.43131 10.8133 9.41152 10.9759 9.49593L15.9985 12.1041C16.3975 12.3114 16.2403 12.8798 15.784 12.8798Z" fill="black"/>
<path d="M4.62248 11.8679L2.68183 13.1832C2.567 13.2611 2.49902 13.3857 2.49902 13.5184V13.5386C2.49902 13.7671 2.69696 13.9523 2.94113 13.9523H4.43678C4.68095 13.9523 4.87888 14.1376 4.87888 14.3661V14.3988C4.87888 14.6274 5.07682 14.8126 5.32099 14.8126H5.73597C5.93306 14.8126 6.10635 14.6905 6.16084 14.5132L6.57699 13.1594C6.62896 12.9903 6.56102 12.8089 6.40759 12.7072L5.13725 11.8654C4.98276 11.763 4.77579 11.7641 4.62248 11.8679Z" fill="black"/>
</g>
<defs>
<linearGradient id="paint0_linear_300_3697" x1="9.57906" y1="2.34413e-07" x2="9.57906" y2="17.931" gradientUnits="userSpaceOnUse">
<stop stop-color="#2AAEED"/>
<stop offset="1" stop-color="#2C4AA8"/>
</linearGradient>
<linearGradient id="paint1_linear_300_3697" x1="9.57906" y1="2.34413e-07" x2="9.57906" y2="17.931" gradientUnits="userSpaceOnUse">
<stop stop-color="#2AAEED"/>
<stop offset="1" stop-color="#2C4AA8"/>
</linearGradient>
</defs>
</svg>
