<svg width="26" height="26" viewBox="0 0 26 26" fill="none" xmlns="http://www.w3.org/2000/svg">
<path fill-rule="evenodd" clip-rule="evenodd" d="M16.2937 4.38888C17.3878 4.82438 17.7226 6.34105 18.17 6.82855C18.6174 7.31605 19.2577 7.4818 19.6119 7.4818C21.4947 7.4818 23.0212 9.00821 23.0212 10.89V17.1679C23.0212 19.692 20.9737 21.7395 18.4495 21.7395H7.55116C5.02591 21.7395 2.97949 19.692 2.97949 17.1679V10.89C2.97949 9.00821 4.50591 7.4818 6.38874 7.4818C6.74191 7.4818 7.38216 7.31605 7.83066 6.82855C8.27808 6.34105 8.61174 4.82438 9.70591 4.38888C10.8012 3.95338 15.1995 3.95338 16.2937 4.38888Z" stroke="#0D53DB" stroke-width="1.5" stroke-linecap="round" stroke-linejoin="round"/>
<path d="M18.9538 10.2917H18.9635" stroke="#0D53DB" stroke-width="2" stroke-linecap="round" stroke-linejoin="round"/>
<path fill-rule="evenodd" clip-rule="evenodd" d="M16.444 14.222C16.444 12.3197 14.9024 10.7781 13.0001 10.7781C11.0977 10.7781 9.55615 12.3197 9.55615 14.222C9.55615 16.1243 11.0977 17.6659 13.0001 17.6659C14.9024 17.6659 16.444 16.1243 16.444 14.222Z" stroke="#0D53DB" stroke-width="1.5" stroke-linecap="round" stroke-linejoin="round"/>
</svg>
