<svg width="22" height="22" viewBox="0 0 22 22" fill="none" xmlns="http://www.w3.org/2000/svg">
<path fill-rule="evenodd" clip-rule="evenodd" d="M19.3992 8.14599L20.1194 8.86599C20.6897 9.42599 20.9998 10.186 20.9998 10.986C21.0098 11.786 20.6997 12.547 20.1395 13.116C20.1328 13.1233 20.1261 13.1298 20.1194 13.1362C20.1161 13.1394 20.1128 13.1427 20.1094 13.146L19.3992 13.856C19.1191 14.136 18.959 14.516 18.959 14.917V15.946C18.959 17.606 17.6085 18.957 15.9479 18.957H14.9176C14.5174 18.957 14.1373 19.116 13.8572 19.396L13.1369 20.116C12.5467 20.707 11.7764 20.996 11.0061 20.996C10.2359 20.996 9.46558 20.707 8.87537 20.127L8.14511 19.396C7.865 19.116 7.48487 18.957 7.08472 18.957H6.05435C4.39375 18.957 3.04326 17.606 3.04326 15.946V14.917C3.04326 14.516 2.8832 14.136 2.6031 13.846L1.88284 13.136C0.712412 11.967 0.702408 10.056 1.87283 8.87699L2.6031 8.14599C2.8832 7.86599 3.04326 7.48599 3.04326 7.07599V6.05599C3.04326 4.39599 4.39375 3.04699 6.05435 3.04699H7.08472C7.48487 3.04699 7.865 2.88599 8.14511 2.60599L8.86537 1.88599C10.0358 0.706989 11.9465 0.706989 13.1269 1.87699L13.8572 2.60599C14.1373 2.88599 14.5174 3.04699 14.9176 3.04699H15.9479C17.6085 3.04699 18.959 4.39599 18.959 6.05599V7.08699C18.959 7.48599 19.1191 7.86599 19.3992 8.14599ZM8.42521 14.446C8.66529 14.446 8.88537 14.356 9.04543 14.186L14.1873 9.04699C14.5274 8.70699 14.5274 8.14599 14.1873 7.80599C13.8472 7.46699 13.297 7.46699 12.9569 7.80599L7.81499 12.946C7.47486 13.286 7.47486 13.846 7.81499 14.186C7.97504 14.356 8.19512 14.446 8.42521 14.446ZM12.6968 13.566C12.6968 14.056 13.0869 14.446 13.5771 14.446C14.0572 14.446 14.4474 14.056 14.4474 13.566C14.4474 13.087 14.0572 12.696 13.5771 12.696C13.0869 12.696 12.6968 13.087 12.6968 13.566ZM8.43521 7.55599C8.91539 7.55599 9.30553 7.94599 9.30553 8.42599C9.30553 8.91699 8.91539 9.30599 8.43521 9.30599C7.95504 9.30599 7.55489 8.91699 7.55489 8.42599C7.55489 7.94599 7.95504 7.55599 8.43521 7.55599Z" fill="#0D53DB"/>
</svg>
